<svg id="id_card" data-name="id card" xmlns="http://www.w3.org/2000/svg" viewBox="0 0 1061.15 701.64"><defs><style>.cls-1{fill:none;stroke:#222a41;stroke-miterlimit:10;stroke-width:3px;}.cls-2{fill:#222a41;}</style></defs><path class="cls-1" d="M981,42.86H80.14A47.12,47.12,0,0,0,33,90V611.66a47.12,47.12,0,0,0,47.12,47.11H981a47.11,47.11,0,0,0,47.11-47.11V90A47.12,47.12,0,0,0,981,42.86Z"/><path class="cls-1" d="M981,659.18H80.15a47.58,47.58,0,0,1-47.53-47.53V90A47.58,47.58,0,0,1,80.14,42.46H981A47.58,47.58,0,0,1,1028.53,90V611.65A47.58,47.58,0,0,1,981,659.18ZM80.14,43.29A46.75,46.75,0,0,0,33.44,90V611.66a46.75,46.75,0,0,0,46.7,46.7H981a46.75,46.75,0,0,0,46.7-46.7V90A46.75,46.75,0,0,0,981,43.28Z"/><rect class="cls-2" x="113.39" y="256" width="280.83" height="39.59"/><rect class="cls-2" x="113.39" y="309.64" width="376.28" height="39.59"/><rect class="cls-2" x="113.39" y="363.27" width="330.8" height="39.59"/><path class="cls-2" d="M909.15,312.79c-30.84,16.85-62.7,32-95.9,43.62-32.8,11.48-67,19.55-101.73,21.73-17.1,1.07-34.61,1.06-51.6-1.36-15.73-2.24-32.06-7.78-41.39-21.49-4.18-6.15-6.66-13.51-5.93-21a30.85,30.85,0,0,1,8.32-17.54c9.49-10.33,23.64-16.35,37-19.88,13.83-3.67,30.78-4.08,40.21,8.64,8,10.75,7.45,25.68,5.83,38.3-.42,3.35-1,6.68-1.61,10a1.52,1.52,0,0,0,1.44,1.9c11.37.4,19.32-9.44,26.68-16.67,3.64-3.58,7.62-7.33,12.49-9.13a16.21,16.21,0,0,1,8.13-.87c4.19.67,8.06,2.6,12.26,3.25a12.44,12.44,0,0,0,10.73-3.1c2.57-2.41,3.76-6,1.88-9.2-.83-1.42-3.39-.48-2.74,1.15,3.84,9.68,14.09,15.9,24.43,15.49,10.71-.43,19.2-8.48,21.67-18.69a24.23,24.23,0,0,0-1.85-16.86,1.51,1.51,0,0,0-2.35-.3c-12.93,12.84-13,33.32-5.17,48.85a47,47,0,0,0,18.8,19.81,62.91,62.91,0,0,0,30.46,7.78,86.54,86.54,0,0,0,35.39-7.5c1.76-.77.24-3.36-1.52-2.59-18.28,8-40.69,10.34-59.16,1.62a44.78,44.78,0,0,1-19.61-17.41,46.7,46.7,0,0,1-6.72-23.71c0-9.18,3.06-18.19,9.65-24.73l-2.36-.3c4.16,8,2.13,18.47-4,25-6.38,6.77-16.45,7.69-24.56,3.56a21.16,21.16,0,0,1-10.21-10.78l-2.74,1.16c1.68,2.85-1,5.65-3.38,7-3.29,1.79-6.89.9-10.27-.13-3.56-1.08-7.1-2.43-10.88-2.47a18.85,18.85,0,0,0-7,1.26c-9.66,3.73-15.84,12.94-23.5,19.44-4.15,3.52-9,6.34-14.59,6.15l1.45,1.89c2.53-13.46,4.63-28.43,0-41.71a31.51,31.51,0,0,0-11.5-15.69c-6.3-4.44-14.14-5.92-21.73-5.62-8,.31-15.95,2.37-23.48,5.07A91.19,91.19,0,0,0,629,306.16c-5.81,3.84-11.15,8.62-14.8,14.6a31.31,31.31,0,0,0-4.38,20.47c2.2,16,15.29,27.92,29.74,33.56,8,3.14,16.59,4.66,25.13,5.57a261.29,261.29,0,0,0,26.83,1.38,322.46,322.46,0,0,0,53.9-4.51,396.75,396.75,0,0,0,52.76-12.67,521.25,521.25,0,0,0,51.17-19.05c16.8-7.22,33.27-15.21,49.46-23.74q6-3.15,11.9-6.39c1.69-.93.18-3.52-1.51-2.59Z"/></svg>