<svg id="id_card" data-name="id card" xmlns="http://www.w3.org/2000/svg" viewBox="0 0 1061.15 701.64"><defs><style>.cls-1{fill:#222a41;}.cls-2{fill:none;stroke:#222a41;stroke-miterlimit:10;stroke-width:3px;}</style></defs><rect class="cls-1" x="82.63" y="458.98" width="907.49" height="39.59"/><rect class="cls-1" x="82.63" y="511.97" width="907.49" height="39.59"/><rect class="cls-1" x="82.63" y="563.97" width="907.49" height="39.59"/><path class="cls-2" d="M981,42.86H80.14A47.12,47.12,0,0,0,33,90V611.66a47.12,47.12,0,0,0,47.12,47.11H981a47.11,47.11,0,0,0,47.11-47.11V90A47.12,47.12,0,0,0,981,42.86Z"/><path class="cls-2" d="M981,659.18H80.15a47.58,47.58,0,0,1-47.53-47.53V90A47.58,47.58,0,0,1,80.14,42.46H981A47.58,47.58,0,0,1,1028.53,90V611.65A47.58,47.58,0,0,1,981,659.18ZM80.14,43.29A46.75,46.75,0,0,0,33.44,90V611.66a46.75,46.75,0,0,0,46.7,46.7H981a46.75,46.75,0,0,0,46.7-46.7V90A46.75,46.75,0,0,0,981,43.28Z"/><path class="cls-1" d="M681.09,254c-30.83,16.86-62.7,32-95.89,43.62-32.8,11.49-67,19.56-101.73,21.74-17.1,1.07-34.62,1.06-51.61-1.36-15.72-2.24-32.06-7.78-41.38-21.49-4.19-6.15-6.67-13.51-5.93-21A30.78,30.78,0,0,1,392.87,258c9.48-10.33,23.63-16.35,36.95-19.88,13.84-3.67,30.79-4.08,40.22,8.64,8,10.75,7.45,25.68,5.83,38.3-.43,3.35-1,6.68-1.62,10a1.52,1.52,0,0,0,1.45,1.89c11.37.41,19.32-9.43,26.68-16.66,3.64-3.58,7.62-7.34,12.49-9.13a16.09,16.09,0,0,1,8.13-.87c4.19.67,8.06,2.6,12.26,3.25a12.42,12.42,0,0,0,10.72-3.1c2.58-2.41,3.77-6,1.89-9.21-.83-1.41-3.39-.47-2.74,1.16,3.84,9.68,14.09,15.9,24.43,15.49,10.71-.43,19.2-8.48,21.66-18.7a24.26,24.26,0,0,0-1.84-16.85A1.52,1.52,0,0,0,587,242c-12.93,12.84-12.94,33.31-5.16,48.85a47,47,0,0,0,18.8,19.81,62.91,62.91,0,0,0,30.46,7.78A86.46,86.46,0,0,0,666.5,311c1.77-.77.24-3.36-1.51-2.59-18.28,8-40.69,10.34-59.16,1.62a44.79,44.79,0,0,1-19.61-17.41,46.81,46.81,0,0,1-6.73-23.71c0-9.18,3.07-18.19,9.65-24.73l-2.35-.3c4.15,8,2.12,18.47-4,25-6.39,6.77-16.45,7.69-24.56,3.56A21.16,21.16,0,0,1,548,261.58l-2.74,1.16c1.67,2.85-1,5.65-3.38,7-3.29,1.78-6.89.89-10.27-.13-3.57-1.08-7.11-2.43-10.88-2.48a18.82,18.82,0,0,0-7,1.27c-9.66,3.73-15.85,12.94-23.5,19.44-4.15,3.52-9,6.34-14.59,6.14l1.45,1.9c2.52-13.47,4.63-28.43,0-41.71a31.35,31.35,0,0,0-11.5-15.69c-6.3-4.44-14.14-5.93-21.73-5.63-8,.32-15.94,2.38-23.47,5.08a91,91,0,0,0-19.59,9.51c-5.81,3.84-11.16,8.62-14.8,14.6a31.3,31.3,0,0,0-4.38,20.47c2.19,16,15.28,27.92,29.73,33.56,8,3.14,16.6,4.65,25.14,5.57A264,264,0,0,0,463.41,323a322.49,322.49,0,0,0,53.91-4.51,396.23,396.23,0,0,0,52.75-12.67,520.3,520.3,0,0,0,51.17-19.05c16.81-7.22,33.28-15.21,49.46-23.74q6-3.15,11.91-6.39c1.69-.93.18-3.52-1.52-2.6Z"/></svg>