<svg id="id_card" data-name="id card" xmlns="http://www.w3.org/2000/svg" viewBox="0 0 1061.15 701.64"><defs><style>.cls-1{fill:#222a41;}.cls-2{fill:none;stroke:#222a41;stroke-miterlimit:10;stroke-width:4px;}.cls-3{fill:#ccc;}</style></defs><polygon class="cls-1" points="191.31 122.3 175.65 122.3 175.65 117.87 180.94 117.87 180.94 88.35 175.65 88.35 175.65 84.01 191.31 84.01 191.31 88.35 186.03 88.35 186.03 117.87 191.31 117.87 191.31 122.3"/><polygon class="cls-1" points="221.39 122.3 204.09 89.43 204.09 122.3 199.17 122.3 199.17 84.01 206.67 84.01 222.52 114.08 222.52 84.01 227.45 84.01 227.45 122.3 221.39 122.3"/><polygon class="cls-1" points="251.41 88.63 251.41 122.3 246.32 122.3 246.32 88.63 233.62 88.63 233.62 84.01 264.11 84.01 264.11 88.63 251.41 88.63"/><polygon class="cls-1" points="270.28 122.3 270.28 84.01 293.69 84.01 293.69 88.63 275.4 88.63 275.4 99.81 291.03 99.81 291.03 104.46 275.4 104.46 275.4 117.65 293.69 117.65 293.69 122.3 270.28 122.3"/><path class="cls-1" d="M323.73,122.3,314,106.67H307.3V122.3h-5.12V84h11.9q7.14,0,10.24,2.63t3.09,8.13a12.91,12.91,0,0,1-1.89,7.44,9.47,9.47,0,0,1-6.16,3.65l10.38,16.44Zm-1.6-27.14q0-3.8-1.92-5.22T314,88.52H307.3v13.61h6.39a15.13,15.13,0,0,0,5.05-.68,4.6,4.6,0,0,0,2.62-2.15A9.17,9.17,0,0,0,322.13,95.16Z"/><polygon class="cls-1" points="358.63 122.3 341.33 89.43 341.33 122.3 336.41 122.3 336.41 84.01 343.9 84.01 359.76 114.08 359.76 84.01 364.68 84.01 364.68 122.3 358.63 122.3"/><path class="cls-1" d="M371.13,122.3,384.22,84h6.64l13.08,38.29h-5.39l-3.32-10H379.62l-3.26,10Zm10-14.61h12.45L387.4,89Z"/><polygon class="cls-1" points="419.74 88.63 419.74 122.3 414.65 122.3 414.65 88.63 401.95 88.63 401.95 84.01 432.44 84.01 432.44 88.63 419.74 88.63"/><polygon class="cls-1" points="452.06 122.3 436.4 122.3 436.4 117.87 441.69 117.87 441.69 88.35 436.4 88.35 436.4 84.01 452.06 84.01 452.06 88.35 446.78 88.35 446.78 117.87 452.06 117.87 452.06 122.3"/><path class="cls-1" d="M489.33,103.16q0,10.32-3.89,15.13t-11.69,4.81q-7.9,0-11.74-4.9t-3.83-15q0-10.08,3.79-15t11.78-5q7.89,0,11.73,4.85T489.33,103.16Zm-5.37,0q0-7.95-2.39-11.68c-1.6-2.49-4.2-3.74-7.82-3.74s-6.22,1.25-7.81,3.74-2.4,6.38-2.4,11.68.81,9.23,2.42,11.7,4.21,3.7,7.79,3.7,6.15-1.22,7.78-3.67S484,108.52,484,103.16Z"/><polygon class="cls-1" points="519.88 122.3 502.58 89.43 502.58 122.3 497.66 122.3 497.66 84.01 505.15 84.01 521.01 114.08 521.01 84.01 525.93 84.01 525.93 122.3 519.88 122.3"/><path class="cls-1" d="M532.38,122.3,545.47,84h6.64L565.2,122.3h-5.4l-3.32-10h-15.6l-3.27,10Zm10-14.61h12.46L548.65,89Z"/><polygon class="cls-1" points="571.64 122.3 571.64 84.01 576.76 84.01 576.76 117.65 594.08 117.65 594.08 122.3 571.64 122.3"/><path class="cls-1" d="M640.59,96.24q0,6.92-3.25,10t-10.55,3.08h-6v13h-5.12V84H627q7.15,0,10.37,3T640.59,96.24Zm-5.37.11c0-2.68-.66-4.63-2-5.87s-3.59-1.85-6.8-1.85h-5.65v16.05h4.93a16.43,16.43,0,0,0,5.91-.79,5.24,5.24,0,0,0,2.73-2.55A11.48,11.48,0,0,0,635.22,96.35Z"/><path class="cls-1" d="M641.92,122.3,655,84h6.64l13.09,38.29h-5.4l-3.32-10h-15.6l-3.27,10Zm10-14.61h12.45L658.19,89Z"/><path class="cls-1" d="M706.91,111.81a10.27,10.27,0,0,1-3.52,8.33q-3.54,3-10.31,3a18.29,18.29,0,0,1-8.63-1.82,14.07,14.07,0,0,1-5.65-5.67l4.15-2.77a12.05,12.05,0,0,0,16.43,4,5.45,5.45,0,0,0,2.33-4.66,5.25,5.25,0,0,0-.74-2.85,6.43,6.43,0,0,0-2-1.95,10.82,10.82,0,0,0-2.79-1.27c-1.06-.33-2.15-.63-3.3-.93q-2.82-.69-5.25-1.42a16.09,16.09,0,0,1-4.22-1.9,8.49,8.49,0,0,1-2.81-3,9.47,9.47,0,0,1-1-4.67,10.35,10.35,0,0,1,3.27-8.06q3.29-3,9.81-3a15.61,15.61,0,0,1,8.3,1.93,14.47,14.47,0,0,1,4.9,4.94l-4.07,2.87a11.29,11.29,0,0,0-3.63-3.84,10.1,10.1,0,0,0-5.5-1.36,9.13,9.13,0,0,0-5.81,1.65,5.35,5.35,0,0,0-2.07,4.41,4.49,4.49,0,0,0,.62,2.46,5.06,5.06,0,0,0,1.78,1.68,12.4,12.4,0,0,0,2.9,1.16c1.15.32,2.46.67,3.94,1q2.6.69,5,1.45a15.13,15.13,0,0,1,4.11,2,8.91,8.91,0,0,1,2.78,3.21A10.76,10.76,0,0,1,706.91,111.81Z"/><path class="cls-1" d="M740.86,111.81a10.27,10.27,0,0,1-3.52,8.33q-3.54,3-10.31,3a18.29,18.29,0,0,1-8.63-1.82,14.07,14.07,0,0,1-5.65-5.67l4.15-2.77a12.05,12.05,0,0,0,16.43,4,5.45,5.45,0,0,0,2.33-4.66,5.25,5.25,0,0,0-.74-2.85,6.43,6.43,0,0,0-2-1.95,10.82,10.82,0,0,0-2.79-1.27c-1.06-.33-2.15-.63-3.3-.93q-2.82-.69-5.25-1.42a16.09,16.09,0,0,1-4.22-1.9,8.49,8.49,0,0,1-2.81-3,9.47,9.47,0,0,1-1-4.67,10.35,10.35,0,0,1,3.27-8.06q3.28-3,9.81-3a15.61,15.61,0,0,1,8.3,1.93,14.47,14.47,0,0,1,4.9,4.94l-4.07,2.87a11.29,11.29,0,0,0-3.63-3.84,10.12,10.12,0,0,0-5.5-1.36,9.13,9.13,0,0,0-5.81,1.65,5.35,5.35,0,0,0-2.07,4.41,4.49,4.49,0,0,0,.62,2.46,5.06,5.06,0,0,0,1.78,1.68,12.4,12.4,0,0,0,2.9,1.16c1.15.32,2.46.67,3.94,1q2.6.69,5,1.45a15.13,15.13,0,0,1,4.11,2,8.91,8.91,0,0,1,2.78,3.21A10.76,10.76,0,0,1,740.86,111.81Z"/><path class="cls-1" d="M774,96.24q0,6.92-3.25,10c-2.17,2.06-5.68,3.08-10.56,3.08h-6v13h-5.12V84h11.35q7.16,0,10.37,3T774,96.24Zm-5.37.11c0-2.68-.66-4.63-2-5.87s-3.59-1.85-6.81-1.85H754.2v16.05h4.93a16.33,16.33,0,0,0,5.9-.79,5.22,5.22,0,0,0,2.74-2.55A11.48,11.48,0,0,0,768.64,96.35Z"/><path class="cls-1" d="M811.2,103.16q0,10.32-3.89,15.13t-11.69,4.81q-7.92,0-11.74-4.9t-3.84-15q0-10.08,3.79-15t11.79-5q7.89,0,11.73,4.85T811.2,103.16Zm-5.37,0q0-7.95-2.39-11.68c-1.6-2.49-4.2-3.74-7.82-3.74S789.4,89,787.8,91.48s-2.39,6.38-2.39,11.68.81,9.23,2.42,11.7,4.21,3.7,7.79,3.7,6.15-1.22,7.78-3.67S805.83,108.52,805.83,103.16Z"/><path class="cls-1" d="M841.08,122.3l-9.77-15.63h-6.67V122.3h-5.11V84h11.89q7.14,0,10.24,2.63t3.1,8.13a12.83,12.83,0,0,1-1.9,7.44,9.45,9.45,0,0,1-6.15,3.65l10.37,16.44Zm-1.61-27.14q0-3.8-1.92-5.22t-6.18-1.42h-6.73v13.61H831a15.13,15.13,0,0,0,5.05-.68,4.61,4.61,0,0,0,2.61-2.15A9,9,0,0,0,839.47,95.16Z"/><polygon class="cls-1" points="866.5 88.63 866.5 122.3 861.41 122.3 861.41 88.63 848.71 88.63 848.71 84.01 879.21 84.01 879.21 88.63 866.5 88.63"/><path class="cls-1" d="M346.79,602.27a4.08,4.08,0,0,0-2.94-1,4.64,4.64,0,0,0-3.65,1.4,5.75,5.75,0,0,0-1.25,4c0,3.28,1.63,4.91,4.9,4.91a8.16,8.16,0,0,0,2.71-.48,12.66,12.66,0,0,0,2.29-1.06,19.14,19.14,0,0,0-.5-5A6,6,0,0,0,346.79,602.27Z"/><path class="cls-1" d="M387.29,601.35a4.38,4.38,0,0,0-4.09,2.35q-1.32,2.34-1.32,7.35t1.32,7.35a4.77,4.77,0,0,0,8.21,0c.88-1.56,1.31-4,1.31-7.39s-.43-5.78-1.31-7.33A4.39,4.39,0,0,0,387.29,601.35Z"/><polygon class="cls-1" points="472.94 571.21 480.75 571.21 476.85 559.52 472.94 571.21"/><path class="cls-1" d="M326.8,613.3a18.88,18.88,0,0,0-3.24-1.75,15.89,15.89,0,0,0-3.17,1.63,5.84,5.84,0,0,0-1.5,1.61,4,4,0,0,0-.55,2.05,3.68,3.68,0,0,0,1.28,2.94,5.94,5.94,0,0,0,3.94,1.1,5.77,5.77,0,0,0,3.95-1.13,4.08,4.08,0,0,0,.75-4.87A5.24,5.24,0,0,0,326.8,613.3Z"/><path class="cls-1" d="M435.94,558.7A5.38,5.38,0,0,0,431,561q-1.5,2.36-1.5,7.32c0,3.35.5,5.79,1.52,7.34a6.3,6.3,0,0,0,9.75,0q1.53-2.31,1.53-7.36t-1.5-7.32A5.39,5.39,0,0,0,435.94,558.7Z"/><path class="cls-1" d="M415.4,560.13a11.15,11.15,0,0,0-4.89-.87h-2.67v18.19h2.67a10.93,10.93,0,0,0,4.89-.88,5.18,5.18,0,0,0,2.5-2.81,15,15,0,0,0,.78-5.43,15.18,15.18,0,0,0-.76-5.38A5.15,5.15,0,0,0,415.4,560.13Z"/><path class="cls-1" d="M323.56,608.92A13.1,13.1,0,0,0,327,607a3,3,0,0,0,1.23-2.38A3.31,3.31,0,0,0,327,602a6.68,6.68,0,0,0-7,0,3.25,3.25,0,0,0-1.1,2.53,2.68,2.68,0,0,0,.43,1.56,5.1,5.1,0,0,0,1.38,1.28A22,22,0,0,0,323.56,608.92Z"/><path class="cls-1" d="M154.09,601.35a4.38,4.38,0,0,0-4.1,2.35q-1.31,2.34-1.31,7.35T150,618.4a4.78,4.78,0,0,0,8.22,0q1.31-2.34,1.3-7.39t-1.3-7.33A4.41,4.41,0,0,0,154.09,601.35Z"/><path class="cls-1" d="M89.92,559.26H86.39v10.06h3.08a10.13,10.13,0,0,0,3.7-.5,3.23,3.23,0,0,0,1.72-1.59,7.14,7.14,0,0,0,.55-3.13,4.83,4.83,0,0,0-1.25-3.68C93.36,559.64,91.93,559.26,89.92,559.26Z"/><path class="cls-1" d="M503.27,565.94a5.58,5.58,0,0,0,.49-2.59,3.83,3.83,0,0,0-1.21-3.27,6.61,6.61,0,0,0-3.87-.89h-4.22v8.53h4a9.48,9.48,0,0,0,3.16-.42A2.89,2.89,0,0,0,503.27,565.94Z"/><path class="cls-1" d="M281.29,610.41a8.37,8.37,0,0,0-2.72.47,11.92,11.92,0,0,0-2.28,1c0,3.08.42,5.31,1.24,6.7a4.16,4.16,0,0,0,3.83,2.08,4.51,4.51,0,0,0,3.59-1.39,5.9,5.9,0,0,0,1.21-4Q286.16,610.41,281.29,610.41Z"/><path class="cls-1" d="M280.34,567.23a7.14,7.14,0,0,0,.55-3.13,4.83,4.83,0,0,0-1.25-3.68c-.83-.78-2.26-1.16-4.27-1.16h-3.53v10.06h3.08a10.13,10.13,0,0,0,3.7-.5A3.27,3.27,0,0,0,280.34,567.23Z"/><polygon class="cls-1" points="241.68 614.88 241.68 603.56 232.49 614.88 241.68 614.88"/><path class="cls-1" d="M196.58,567.3a2.89,2.89,0,0,0,1.64-1.36,5.71,5.71,0,0,0,.49-2.59,3.83,3.83,0,0,0-1.21-3.27,6.63,6.63,0,0,0-3.87-.89h-4.22v8.53h4A9.53,9.53,0,0,0,196.58,567.3Z"/><path class="cls-1" d="M171.22,558.7a5.38,5.38,0,0,0-4.9,2.34q-1.5,2.36-1.5,7.32c0,3.35.51,5.79,1.52,7.34a6.3,6.3,0,0,0,9.75,0q1.53-2.31,1.53-7.36t-1.5-7.32A5.38,5.38,0,0,0,171.22,558.7Z"/><path class="cls-1" d="M953.13,601.35A4.37,4.37,0,0,0,949,603.7q-1.32,2.34-1.32,7.35T949,618.4a4.77,4.77,0,0,0,8.21,0q1.31-2.34,1.31-7.39t-1.31-7.33A4.4,4.4,0,0,0,953.13,601.35Z"/><path class="cls-1" d="M931.21,601.35a4.37,4.37,0,0,0-4.09,2.35q-1.32,2.34-1.32,7.35t1.32,7.35a4.77,4.77,0,0,0,8.21,0q1.3-2.34,1.31-7.39t-1.31-7.33A4.4,4.4,0,0,0,931.21,601.35Z"/><path class="cls-1" d="M42.59,525.66V632a34.13,34.13,0,0,0,34,34.22H985.28a34.14,34.14,0,0,0,34-34.22V525.66Zm896.16,43.45,19.08-8v2.7l-15.64,6.42,15.64,6.4v2.71l-19.08-8Zm-24.74,0,19.07-8v2.7l-15.64,6.42,15.64,6.4v2.71l-19.07-8Zm-24.75,0,19.08-8v2.7l-15.65,6.42,15.65,6.4v2.71l-19.08-8Zm-24.75,0,19.08-8v2.7L868,570.2l15.64,6.4v2.71l-19.08-8Zm-24.74,0,19.07-8v2.7L843.2,570.2l15.64,6.4v2.71l-19.07-8Zm-24.75,0,19.08-8v2.7l-15.65,6.42,15.65,6.4v2.71l-19.08-8Zm-24.75,0,19.08-8v2.7l-15.64,6.42,15.64,6.4v2.71l-19.08-8Zm-24.74,0,19.07-8v2.7L769,570.2l15.64,6.4v2.71l-19.07-8Zm-24.75,0,19.08-8v2.7l-15.64,6.42,15.64,6.4v2.71l-19.08-8Zm-24.74,0,19.07-8v2.7l-15.64,6.42,15.64,6.4v2.71l-19.07-8Zm-24.75,0,19.08-8v2.7l-15.65,6.42,15.65,6.4v2.71l-19.08-8Zm-24.75,0,19.08-8v2.7L670,570.2l15.64,6.4v2.71l-19.08-8Zm-24.74,0,19.07-8v2.7l-15.64,6.42,15.64,6.4v2.71l-19.07-8Zm-24.75,0,19.08-8v2.7l-15.65,6.42,15.65,6.4v2.71l-19.08-8Zm-24.74,0,19.07-8v2.7l-15.64,6.42,15.64,6.4v2.71l-19.07-8Zm-24.75,0,19.07-8v2.7L571,570.2l15.64,6.4v2.71l-19.07-8Zm-22.67-12.75H564v2.9h-8v21.1h-3.19v-21.1h-8ZM532.6,577.59h3.31v-18.5H532.6v-2.73h9.81v2.73H539.1v18.5h3.31v2.77H532.6Zm-278.71,0h3.31v-18.5h-3.31v-2.73h9.81v2.73h-3.31v18.5h3.31v2.77h-9.81ZM145.61,556.36h3.2v21.09h10.86v2.91H145.61ZM95.54,621.65a9.74,9.74,0,0,1-6.33,1.83,10.23,10.23,0,0,1-4.46-1,6.55,6.55,0,0,1-3-2.56l2.67-1.7a5.4,5.4,0,0,0,1.86,1.7,5.64,5.64,0,0,0,2.86.71,5.73,5.73,0,0,0,4-1.15,4.68,4.68,0,0,0,1.26-3.62q0-4.27-5.5-4.28H87.13v-2.77h1.49a6.45,6.45,0,0,0,3.92-1.07,3.54,3.54,0,0,0,1.44-3,3,3,0,0,0-1.17-2.62,5.19,5.19,0,0,0-3.09-.84,5.61,5.61,0,0,0-5,2.65L82,602.24a6.72,6.72,0,0,1,3.1-2.83,11.42,11.42,0,0,1,4.8-.93,10.16,10.16,0,0,1,4,.71,5.55,5.55,0,0,1,2.55,2,5.39,5.39,0,0,1,.87,3.06,5.67,5.67,0,0,1-1.19,3.8,6.79,6.79,0,0,1-3.64,2,5.7,5.7,0,0,1,3.77,1.7,6,6,0,0,1,1.49,4.37A6.72,6.72,0,0,1,95.54,621.65Zm1.22-51.35c-1.35,1.28-3.56,1.93-6.61,1.93H86.39v8.13H83.18v-24h7.11q4.48,0,6.5,1.86t2,5.81Q98.8,568.37,96.76,570.3Zm16.3-16.3H116l-12.43,31.55h-2.88Zm6.07,69H103V619.6c2.84-2.41,4.89-4.21,6.16-5.42s2.32-2.29,3.16-3.23a13.73,13.73,0,0,0,1.93-2.75,6.36,6.36,0,0,0,.68-2.94,3.67,3.67,0,0,0-1.17-2.86,4.49,4.49,0,0,0-3.14-1.08,5.21,5.21,0,0,0-3,.81,7.31,7.31,0,0,0-2,2.14L103,602.55a7.66,7.66,0,0,1,3.21-3.11,10.4,10.4,0,0,1,4.61-1,8.28,8.28,0,0,1,5.53,1.72,6,6,0,0,1,2,4.88,9.65,9.65,0,0,1-.45,3,9.2,9.2,0,0,1-1.42,2.67,30.7,30.7,0,0,1-2.58,2.89q-1.62,1.64-7.24,6.44h12.47Zm15.92,0h-3.14V605.83H126.1v-2.24a14.36,14.36,0,0,0,3.56-.55,4,4,0,0,0,1.88-1.27,8,8,0,0,0,1.2-2.79h2.31Zm4.57-59.2L124,570.2l15.64,6.4v2.71l-19.07-8v-2.17l19.07-8Zm21.13,56.7q-2.16,3-6.66,3c-3,0-5.22-1-6.65-3s-2.13-5.16-2.13-9.45.71-7.44,2.13-9.45,3.64-3,6.65-3,5.25,1,6.67,3,2.14,5.15,2.14,9.43S162.18,618.46,160.75,620.48Zm18.14,2.5h-3.14V605.83h-5.81v-2.24a14.36,14.36,0,0,0,3.56-.55,4,4,0,0,0,1.88-1.27,8,8,0,0,0,1.2-2.79h2.31Zm-.34-45.13q-2.45,3-7.33,3c-3.31,0-5.76-1-7.36-3.07s-2.4-5.19-2.4-9.44.79-7.34,2.37-9.4,4-3.1,7.39-3.1,5.75,1,7.35,3,2.41,5.19,2.41,9.47S180.17,575.84,178.55,577.85Zm7.65-21.49h7.46q4.47,0,6.42,1.65a6.34,6.34,0,0,1,1.94,5.1,8.08,8.08,0,0,1-1.19,4.66,5.94,5.94,0,0,1-3.86,2.29l6.5,10.3h-3.76l-6.12-9.79h-4.18v9.79H186.2ZM205.49,623h-16.1V619.6c2.84-2.41,4.89-4.21,6.16-5.42s2.32-2.29,3.16-3.23a13.73,13.73,0,0,0,1.93-2.75,6.36,6.36,0,0,0,.68-2.94,3.67,3.67,0,0,0-1.17-2.86,4.49,4.49,0,0,0-3.14-1.08,5.21,5.21,0,0,0-3,.81,7.15,7.15,0,0,0-2,2.14l-2.68-1.72a7.66,7.66,0,0,1,3.21-3.11,10.41,10.41,0,0,1,4.62-1,8.27,8.27,0,0,1,5.52,1.72,6,6,0,0,1,2,4.88,9.65,9.65,0,0,1-.45,3,9.2,9.2,0,0,1-1.42,2.67,30.7,30.7,0,0,1-2.58,2.89q-1.62,1.64-7.24,6.44h12.47Zm2.16-66.62h14.68v2.9H210.86v7h9.8v2.92h-9.8v8.27h11.47v2.91H207.65Zm15.46,65.29a9.76,9.76,0,0,1-6.33,1.83,10.3,10.3,0,0,1-4.47-1,6.6,6.6,0,0,1-3-2.56l2.67-1.7a5.35,5.35,0,0,0,1.87,1.7,5.61,5.61,0,0,0,2.85.71,5.73,5.73,0,0,0,4-1.15A4.68,4.68,0,0,0,222,615.9q0-4.27-5.5-4.28H214.7v-2.77h1.49a6.47,6.47,0,0,0,3.92-1.07,3.54,3.54,0,0,0,1.43-3,3,3,0,0,0-1.17-2.62,5.19,5.19,0,0,0-3.09-.84,5.58,5.58,0,0,0-5,2.65l-2.69-1.7a6.77,6.77,0,0,1,3.1-2.83,11.5,11.5,0,0,1,4.81-.93,10.11,10.11,0,0,1,4,.71,5.55,5.55,0,0,1,2.55,2,5.39,5.39,0,0,1,.87,3.06,5.67,5.67,0,0,1-1.19,3.8,6.76,6.76,0,0,1-3.63,2,5.68,5.68,0,0,1,3.76,1.7,6,6,0,0,1,1.49,4.37A6.71,6.71,0,0,1,223.11,621.65Zm25-4h-3.32V623h-3.08v-5.32H229.33v-3.09L241.82,599h2.94v15.9h3.32Zm.88-37.3h-3.05V560.47l-6.64,13.36h-2l-6.57-13.36v19.89h-3v-24H232l6.37,13.06,6.41-13.06H249ZM266,621.28q-2.17,2.21-6.47,2.2a9.74,9.74,0,0,1-4.69-1,7.1,7.1,0,0,1-2.8-2.49l2.65-1.73a5.5,5.5,0,0,0,4.77,2.44,5.28,5.28,0,0,0,4-1.44,5.47,5.47,0,0,0,1.35-3.92,4.41,4.41,0,0,0-1.39-3.43,5.68,5.68,0,0,0-4-1.26,7.94,7.94,0,0,0-4.47,1.24h-1.56l1.3-12.88h12.57v2.89h-9.94l-.74,6.87a6.3,6.3,0,0,1,1.78-.6,10,10,0,0,1,2-.21,8.08,8.08,0,0,1,5.71,1.87,7.15,7.15,0,0,1,2,5.51A8.13,8.13,0,0,1,266,621.28Zm5.81-40.92h-3.21v-24h7.11q4.49,0,6.5,1.86t2,5.81q0,4.34-2,6.27c-1.36,1.28-3.56,1.93-6.61,1.93h-3.76Zm15.38,41a8.21,8.21,0,0,1-6,2.13q-4.37,0-6.37-3.06t-2-9q0-6.16,2.5-9.56a8.11,8.11,0,0,1,6.92-3.39,9.64,9.64,0,0,1,3.53.58,8.54,8.54,0,0,1,2.74,1.72l-2,2.48a8.72,8.72,0,0,0-2-1.5,4.81,4.81,0,0,0-2.29-.51q-5.28,0-5.93,8.2a11.09,11.09,0,0,1,2.49-1.28,9.23,9.23,0,0,1,3.28-.57,7.45,7.45,0,0,1,5.3,1.86c1.32,1.25,2,3.15,2,5.73A8.27,8.27,0,0,1,287.22,621.35Zm.95-45.18,2.6-1.74A7.55,7.55,0,0,0,301.06,577a3.44,3.44,0,0,0,1.47-2.93,3.23,3.23,0,0,0-.47-1.78,4,4,0,0,0-1.23-1.23,7.21,7.21,0,0,0-1.75-.79c-.66-.21-1.35-.4-2.07-.58-1.17-.29-2.27-.59-3.29-.9a9.73,9.73,0,0,1-2.64-1.19,5.14,5.14,0,0,1-1.76-1.86,5.87,5.87,0,0,1-.65-2.92,6.51,6.51,0,0,1,2.06-5.06q2.06-1.86,6.15-1.86a9.84,9.84,0,0,1,5.2,1.2,9.19,9.19,0,0,1,3.07,3.1L302.6,562a7.25,7.25,0,0,0-2.28-2.41,6.42,6.42,0,0,0-3.44-.85,5.74,5.74,0,0,0-3.65,1,3.34,3.34,0,0,0-1.3,2.76,2.84,2.84,0,0,0,.39,1.54,3.15,3.15,0,0,0,1.12,1.05,7.49,7.49,0,0,0,1.81.73c.73.21,1.55.42,2.48.65s2.12.6,3.1.91a9.68,9.68,0,0,1,2.58,1.26,5.65,5.65,0,0,1,1.74,2,6.75,6.75,0,0,1,.64,3.14,6.46,6.46,0,0,1-2.21,5.22q-2.22,1.86-6.46,1.86a11.52,11.52,0,0,1-5.41-1.15A8.76,8.76,0,0,1,288.17,576.17ZM310.49,602l-9.16,21h-3.55l9.48-21.11H293.72V599h16.77Zm1.33-25.46a17.53,17.53,0,0,1-.88-6.16v-14h3.21V570a16.12,16.12,0,0,0,.57,4.87,4.33,4.33,0,0,0,1.81,2.45,6.64,6.64,0,0,0,3.43.75,6.8,6.8,0,0,0,3.45-.74,4.18,4.18,0,0,0,1.81-2.35,15.81,15.81,0,0,0,.56-4.91v-13.7H329v14a17.64,17.64,0,0,1-.88,6.21,6.15,6.15,0,0,1-2.79,3.31,11.18,11.18,0,0,1-5.31,1,11.3,11.3,0,0,1-5.36-1.06A6.08,6.08,0,0,1,311.82,576.5Zm17.85,45.33a10.2,10.2,0,0,1-6.11,1.65c-2.77,0-4.87-.57-6.28-1.71a6,6,0,0,1-2.13-5q0-4.63,5.19-6.58a14,14,0,0,1-2.83-1.7,5.92,5.92,0,0,1-1.31-1.68,4.8,4.8,0,0,1-.49-2.24,5.47,5.47,0,0,1,2-4.52,9.14,9.14,0,0,1,5.86-1.61,9.31,9.31,0,0,1,5.81,1.56,5.38,5.38,0,0,1,2,4.54,4.91,4.91,0,0,1-.52,2.25,6.18,6.18,0,0,1-1.39,1.76,12.5,12.5,0,0,1-2.76,1.64,10.23,10.23,0,0,1,4,2.76,5.92,5.92,0,0,1,1.24,3.82A5.82,5.82,0,0,1,329.67,621.83Zm21.57-4.44a9.33,9.33,0,0,1-3.19,4.51,8.62,8.62,0,0,1-5.31,1.58,9.1,9.1,0,0,1-6.46-2.34l2-2.46a7.92,7.92,0,0,0,2.09,1.52,5.5,5.5,0,0,0,2.41.51,5,5,0,0,0,4.24-2q1.49-2,1.83-6.23a11.68,11.68,0,0,1-2.53,1.27,9,9,0,0,1-3.22.56,7.52,7.52,0,0,1-5.32-1.84q-2-1.85-2-5.75a8.28,8.28,0,0,1,2.15-6.12,8,8,0,0,1,5.94-2.15q4.51,0,6.48,3c1.31,2,2,4.89,2,8.68A21.38,21.38,0,0,1,351.24,617.39Zm5.38-37h-3.05V560.47l-6.65,13.36h-2l-6.57-13.36v19.89H335.3v-24h4.34L346,569.42l6.42-13.06h4.2ZM368.25,623h-3.14V605.83h-5.8v-2.24a14.44,14.44,0,0,0,3.56-.55,4,4,0,0,0,1.88-1.27A8,8,0,0,0,366,599h2.3Zm-5.46-37.43h-2.88L372.31,554h2.91ZM394,620.48q-2.15,3-6.66,3c-3,0-5.22-1-6.64-3s-2.13-5.16-2.13-9.45.71-7.44,2.13-9.45,3.64-3,6.64-3,5.26,1,6.68,3,2.13,5.15,2.13,9.43S395.39,618.46,394,620.48Zm4.93-56.7-15.64,6.42,15.64,6.4v2.71l-19.08-8v-2.17l19.08-8ZM412.09,623H409V605.83h-5.81v-2.24a14.45,14.45,0,0,0,3.57-.55,4,4,0,0,0,1.88-1.27,8,8,0,0,0,1.2-2.79h2.3Zm8.84-47.61a7.48,7.48,0,0,1-3.5,3.8,15.19,15.19,0,0,1-6.67,1.19h-6.11v-24h6a15.11,15.11,0,0,1,6.62,1.21,7.45,7.45,0,0,1,3.59,3.82,17.35,17.35,0,0,1,1.16,7A18,18,0,0,1,420.93,575.37ZM434,623h-3.14V605.83h-5.81v-2.24a14.45,14.45,0,0,0,3.57-.55,4,4,0,0,0,1.88-1.27,8,8,0,0,0,1.2-2.79H434Zm9.25-45.13q-2.43,3-7.32,3c-3.31,0-5.76-1-7.36-3.07s-2.41-5.19-2.41-9.44.79-7.34,2.38-9.4,4.05-3.1,7.39-3.1,5.74,1,7.35,3,2.41,5.19,2.41,9.47S444.89,575.84,443.26,577.85ZM455.93,623h-3.14V605.83H447v-2.24a14.45,14.45,0,0,0,3.57-.55,4,4,0,0,0,1.88-1.27,8,8,0,0,0,1.2-2.79h2.3ZM465,580.36H450.92v-24h3.21v21.09H465ZM482.53,623H466.44V619.6c2.83-2.41,4.88-4.21,6.16-5.42s2.32-2.29,3.15-3.23a13.41,13.41,0,0,0,1.94-2.75,6.48,6.48,0,0,0,.68-2.94,3.65,3.65,0,0,0-1.18-2.86,4.45,4.45,0,0,0-3.14-1.08,5.2,5.2,0,0,0-3,.81,7.31,7.31,0,0,0-2,2.14l-2.67-1.72a7.55,7.55,0,0,1,3.21-3.11,10.37,10.37,0,0,1,4.61-1,8.28,8.28,0,0,1,5.53,1.72,6.07,6.07,0,0,1,2,4.88,9.65,9.65,0,0,1-.45,3,8.93,8.93,0,0,1-1.41,2.67,30.7,30.7,0,0,1-2.58,2.89q-1.63,1.64-7.25,6.44h12.47Zm1.3-42.62-2.08-6.24H472l-2,6.24h-3.28l8.2-24H479l8.21,24ZM498.45,623h-3.14V605.83H489.5v-2.24a14.45,14.45,0,0,0,3.57-.55,4,4,0,0,0,1.88-1.27,8,8,0,0,0,1.2-2.79h2.3Zm.19-52.41h-4.18v9.79h-3.2v-24h7.45q4.49,0,6.42,1.65a6.34,6.34,0,0,1,1.94,5.1,8.08,8.08,0,0,1-1.19,4.66,5.92,5.92,0,0,1-3.85,2.29l6.5,10.3h-3.76Zm23.43,51.08a9.74,9.74,0,0,1-6.33,1.83,10.23,10.23,0,0,1-4.46-1,6.55,6.55,0,0,1-3-2.56l2.67-1.7a5.35,5.35,0,0,0,1.87,1.7,5.58,5.58,0,0,0,2.85.71,5.73,5.73,0,0,0,4-1.15,4.68,4.68,0,0,0,1.26-3.62q0-4.27-5.5-4.28h-1.77v-2.77h1.49a6.45,6.45,0,0,0,3.92-1.07,3.54,3.54,0,0,0,1.44-3,3,3,0,0,0-1.17-2.62,5.2,5.2,0,0,0-3.1-.84,5.6,5.6,0,0,0-5,2.65l-2.68-1.7a6.72,6.72,0,0,1,3.1-2.83,11.42,11.42,0,0,1,4.8-.93,10.16,10.16,0,0,1,4,.71,5.55,5.55,0,0,1,2.55,2,5.39,5.39,0,0,1,.87,3.06,5.67,5.67,0,0,1-1.19,3.8,6.79,6.79,0,0,1-3.64,2,5.7,5.7,0,0,1,3.77,1.7,6,6,0,0,1,1.49,4.37A6.72,6.72,0,0,1,522.07,621.65ZM526.62,579q-2.21,1.86-6.46,1.86a11.55,11.55,0,0,1-5.41-1.15,8.8,8.8,0,0,1-3.53-3.55l2.6-1.74A7.55,7.55,0,0,0,524.11,577a3.43,3.43,0,0,0,1.46-2.93,3.23,3.23,0,0,0-.46-1.78,4.24,4.24,0,0,0-1.23-1.23,7.28,7.28,0,0,0-1.76-.79c-.66-.21-1.34-.4-2.06-.58-1.18-.29-2.28-.59-3.29-.9a9.94,9.94,0,0,1-2.65-1.19,5.31,5.31,0,0,1-1.76-1.86,5.87,5.87,0,0,1-.64-2.92,6.5,6.5,0,0,1,2-5.06q2.06-1.86,6.15-1.86a9.79,9.79,0,0,1,5.2,1.2,9.1,9.1,0,0,1,3.07,3.1l-2.55,1.8a7.06,7.06,0,0,0-2.28-2.41,6.37,6.37,0,0,0-3.44-.85,5.71,5.71,0,0,0-3.64,1,3.31,3.31,0,0,0-1.3,2.76,2.84,2.84,0,0,0,.39,1.54,3.07,3.07,0,0,0,1.12,1.05,7.32,7.32,0,0,0,1.81.73c.72.21,1.55.42,2.47.65,1.09.29,2.12.6,3.11.91a9.47,9.47,0,0,1,2.57,1.26,5.46,5.46,0,0,1,1.74,2,6.74,6.74,0,0,1,.65,3.14A6.43,6.43,0,0,1,526.62,579Zm19.71,23-9.15,21h-3.56l9.49-21.11H529.56V599h16.77ZM571,606.4l-15.64,6.42,15.64,6.4v2.7l-19.07-8v-2.16l19.07-8Zm24.75,0-15.64,6.42,15.64,6.4v2.7l-19.08-8v-2.16l19.08-8Zm24.74,0-15.64,6.42,15.64,6.4v2.7l-19.07-8v-2.16l19.07-8Zm24.75,0-15.64,6.42,15.64,6.4v2.7l-19.07-8v-2.16l19.07-8Zm24.75,0-15.64,6.42,15.64,6.4v2.7l-19.08-8v-2.16l19.08-8Zm24.74,0-15.64,6.42,15.64,6.4v2.7l-19.07-8v-2.16l19.07-8Zm24.75,0-15.64,6.42,15.64,6.4v2.7l-19.08-8v-2.16l19.08-8Zm24.75,0-15.65,6.42,15.65,6.4v2.7l-19.08-8v-2.16l19.08-8Zm24.74,0-15.64,6.42,15.64,6.4v2.7l-19.07-8v-2.16l19.07-8Zm24.75,0-15.64,6.42,15.64,6.4v2.7l-19.08-8v-2.16l19.08-8Zm24.74,0-15.64,6.42,15.64,6.4v2.7l-19.07-8v-2.16l19.07-8Zm24.75,0-15.64,6.42,15.64,6.4v2.7l-19.07-8v-2.16l19.07-8Zm24.75,0-15.64,6.42,15.64,6.4v2.7l-19.08-8v-2.16l19.08-8Zm24.74,0-15.64,6.42,15.64,6.4v2.7l-19.07-8v-2.16l19.07-8Zm24.75,0-15.64,6.42,15.64,6.4v2.7l-19.08-8v-2.16l19.08-8Zm20.43,14.08q-2.16,3-6.66,3t-6.64-3q-2.15-3-2.14-9.45t2.14-9.45q2.13-3,6.64-3t6.67,3c1.43,2,2.14,5.15,2.14,9.43S939.3,618.46,937.87,620.48Zm21.92,0q-2.16,3-6.66,3t-6.64-3q-2.15-3-2.14-9.45t2.14-9.45q2.13-3,6.64-3t6.67,3c1.43,2,2.14,5.15,2.14,9.43S961.22,618.46,959.79,620.48Z"/><path class="cls-1" d="M473.23,270.79a14.25,14.25,0,0,1-.9,5.58,5.93,5.93,0,0,1-2.79,3,12,12,0,0,1-5.3.95h-4.85V261.26h4.79a12.14,12.14,0,0,1,5.27.95,6,6,0,0,1,2.86,3.05A13.9,13.9,0,0,1,473.23,270.79Zm-2.69,0a11.85,11.85,0,0,0-.61-4.27,4,4,0,0,0-2-2.24,8.71,8.71,0,0,0-3.88-.7h-2.13V278h2.13a8.84,8.84,0,0,0,3.88-.69,4.19,4.19,0,0,0,2-2.24A12,12,0,0,0,470.54,270.77Z"/><path class="cls-1" d="M492,270.79c0,3.44-.64,5.95-1.94,7.55a7,7,0,0,1-5.82,2.4q-3.94,0-5.85-2.44c-1.28-1.63-1.91-4.13-1.91-7.51s.63-5.83,1.88-7.47,3.22-2.46,5.88-2.46,4.57.8,5.84,2.41S492,267.38,492,270.79Zm-2.67,0q0-3.94-1.2-5.81a5,5,0,0,0-7.79,0,11.08,11.08,0,0,0-1.19,5.81c0,2.66.4,4.6,1.21,5.84a5,5,0,0,0,7.75,0Q489.35,274.81,489.35,270.79Z"/><polygon class="cls-1" points="496.17 280.34 496.17 261.26 498.72 261.26 498.72 278.02 507.35 278.02 507.35 280.34 496.17 280.34"/><path class="cls-1" d="M508.68,280.34l6.52-19.08h3.31L525,280.34h-2.69l-1.65-5h-7.78l-1.63,5Zm5-7.29h6.21l-3.1-9.29Z"/><path class="cls-1" d="M539,280.34l-4.86-7.79h-3.33v7.79h-2.55V261.26h5.93q3.55,0,5.1,1.3a5,5,0,0,1,1.55,4.06,6.43,6.43,0,0,1-1,3.71,4.81,4.81,0,0,1-3.06,1.82l5.17,8.19Zm-.8-13.53a3,3,0,0,0-.95-2.6,5.29,5.29,0,0,0-3.09-.71h-3.35v6.79H534a7.46,7.46,0,0,0,2.52-.34,2.35,2.35,0,0,0,1.3-1.07A4.52,4.52,0,0,0,538.18,266.81Z"/><path class="cls-1" d="M558.12,275.11a5.1,5.1,0,0,1-1.76,4.15,7.75,7.75,0,0,1-5.13,1.48,9.19,9.19,0,0,1-4.3-.91,7,7,0,0,1-2.82-2.83l2.07-1.38a6,6,0,0,0,8.18,2,2.72,2.72,0,0,0,1.17-2.32,2.54,2.54,0,0,0-.37-1.42,3.27,3.27,0,0,0-1-1,5.61,5.61,0,0,0-1.4-.63c-.52-.17-1.06-.32-1.63-.47-.94-.22-1.82-.46-2.63-.7a8.3,8.3,0,0,1-2.1-.95,4.22,4.22,0,0,1-1.4-1.48,4.69,4.69,0,0,1-.51-2.32,5.14,5.14,0,0,1,1.64-4,7,7,0,0,1,4.89-1.48,7.87,7.87,0,0,1,4.13.95,7.21,7.21,0,0,1,2.44,2.47l-2,1.43a5.59,5.59,0,0,0-1.81-1.92,5,5,0,0,0-2.73-.67,4.53,4.53,0,0,0-2.9.82,2.66,2.66,0,0,0-1,2.2,2.32,2.32,0,0,0,.31,1.22,2.57,2.57,0,0,0,.89.84,6.43,6.43,0,0,0,1.45.58l2,.52c.86.22,1.69.46,2.47.72a7.65,7.65,0,0,1,2.05,1,4.54,4.54,0,0,1,1.38,1.6A5.42,5.42,0,0,1,558.12,275.11Z"/><polygon class="cls-1" points="568.92 280.34 561.11 280.34 561.11 278.13 563.75 278.13 563.75 263.42 561.11 263.42 561.11 261.26 568.92 261.26 568.92 263.42 566.28 263.42 566.28 278.13 568.92 278.13 568.92 280.34"/><polygon class="cls-1" points="579.76 263.56 579.76 280.34 577.22 280.34 577.22 263.56 570.89 263.56 570.89 261.26 586.08 261.26 586.08 263.56 579.76 263.56"/><path class="cls-1" d="M472.69,332.19a13.73,13.73,0,0,1-.87,5.38,5.66,5.66,0,0,1-2.69,2.92,11.54,11.54,0,0,1-5.13.92h-4.69V323H464a11.57,11.57,0,0,1,5.09.93,5.83,5.83,0,0,1,2.76,2.94A13.5,13.5,0,0,1,472.69,332.19Zm-2.6,0a11.7,11.7,0,0,0-.58-4.13,4,4,0,0,0-1.94-2.17,8.55,8.55,0,0,0-3.76-.67h-2.05v14h2.05a8.49,8.49,0,0,0,3.76-.67,4,4,0,0,0,1.92-2.16A11.53,11.53,0,0,0,470.09,332.16Z"/><path class="cls-1" d="M489.91,332.19a13.73,13.73,0,0,1-.87,5.38,5.66,5.66,0,0,1-2.69,2.92,11.51,11.51,0,0,1-5.13.92h-4.69V323h4.64a11.54,11.54,0,0,1,5.09.93,5.75,5.75,0,0,1,2.76,2.94A13.5,13.5,0,0,1,489.91,332.19Zm-2.6,0a11.7,11.7,0,0,0-.58-4.13,3.92,3.92,0,0,0-1.94-2.17,8.5,8.5,0,0,0-3.75-.67H479v14H481a8.47,8.47,0,0,0,3.75-.67,4,4,0,0,0,1.92-2.16A11.53,11.53,0,0,0,487.31,332.16Z"/><rect class="cls-1" x="492.85" y="333.25" width="8.3" height="2.29"/><polygon class="cls-1" points="518.97 341.41 518.97 326.12 513.87 336.39 512.33 336.39 507.28 326.12 507.28 341.41 504.94 341.41 504.94 322.96 508.27 322.96 513.16 333 518.09 322.96 521.32 322.96 521.32 341.41 518.97 341.41"/><polygon class="cls-1" points="540.21 341.41 540.21 326.12 535.1 336.39 533.57 336.39 528.52 326.12 528.52 341.41 526.17 341.41 526.17 322.96 529.5 322.96 534.39 333 539.33 322.96 542.55 322.96 542.55 341.41 540.21 341.41"/><rect class="cls-1" x="546.34" y="333.25" width="8.3" height="2.29"/><polygon class="cls-1" points="564.88 334.28 564.88 341.41 562.39 341.41 562.39 334.4 556.55 322.96 559.34 322.96 563.67 331.94 568.09 322.96 570.75 322.96 564.88 334.28"/><polygon class="cls-1" points="580.17 334.28 580.17 341.41 577.68 341.41 577.68 334.4 571.84 322.96 574.62 322.96 578.96 331.94 583.38 322.96 586.03 322.96 580.17 334.28"/><polygon class="cls-1" points="595.46 334.28 595.46 341.41 592.97 341.41 592.97 334.4 587.13 322.96 589.91 322.96 594.25 331.94 598.67 322.96 601.32 322.96 595.46 334.28"/><polygon class="cls-1" points="610.75 334.28 610.75 341.41 608.25 341.41 608.25 334.4 602.42 322.96 605.2 322.96 609.53 331.94 613.96 322.96 616.61 322.96 610.75 334.28"/><path class="cls-1" d="M472.69,393a13.73,13.73,0,0,1-.87,5.38,5.7,5.7,0,0,1-2.69,2.92,11.68,11.68,0,0,1-5.13.92h-4.69V383.75H464a11.57,11.57,0,0,1,5.09.93,5.75,5.75,0,0,1,2.76,2.94A13.47,13.47,0,0,1,472.69,393Zm-2.6,0a11.66,11.66,0,0,0-.58-4.13,4,4,0,0,0-1.94-2.17,8.55,8.55,0,0,0-3.76-.67h-2.05v14h2.05a8.63,8.63,0,0,0,3.76-.67,4.08,4.08,0,0,0,1.92-2.16A11.56,11.56,0,0,0,470.09,393Z"/><path class="cls-1" d="M489.91,393a13.73,13.73,0,0,1-.87,5.38,5.7,5.7,0,0,1-2.69,2.92,11.65,11.65,0,0,1-5.13.92h-4.69V383.75h4.64a11.54,11.54,0,0,1,5.09.93,5.67,5.67,0,0,1,2.76,2.94A13.47,13.47,0,0,1,489.91,393Zm-2.6,0a11.66,11.66,0,0,0-.58-4.13,3.92,3.92,0,0,0-1.94-2.17A8.5,8.5,0,0,0,481,386H479v14H481a8.62,8.62,0,0,0,3.75-.67,4.08,4.08,0,0,0,1.92-2.16A11.56,11.56,0,0,0,487.31,393Z"/><rect class="cls-1" x="492.85" y="394.04" width="8.3" height="2.29"/><polygon class="cls-1" points="518.97 402.2 518.97 386.91 513.87 397.18 512.33 397.18 507.28 386.91 507.28 402.2 504.94 402.2 504.94 383.75 508.27 383.75 513.16 393.79 518.09 383.75 521.32 383.75 521.32 402.2 518.97 402.2"/><polygon class="cls-1" points="540.21 402.2 540.21 386.91 535.1 397.18 533.57 397.18 528.52 386.91 528.52 402.2 526.17 402.2 526.17 383.75 529.5 383.75 534.39 393.79 539.33 383.75 542.55 383.75 542.55 402.2 540.21 402.2"/><rect class="cls-1" x="546.34" y="394.04" width="8.3" height="2.29"/><polygon class="cls-1" points="564.88 395.07 564.88 402.2 562.39 402.2 562.39 395.19 556.55 383.75 559.34 383.75 563.67 392.72 568.09 383.75 570.75 383.75 564.88 395.07"/><polygon class="cls-1" points="580.17 395.07 580.17 402.2 577.68 402.2 577.68 395.19 571.84 383.75 574.62 383.75 578.96 392.72 583.38 383.75 586.03 383.75 580.17 395.07"/><polygon class="cls-1" points="595.46 395.07 595.46 402.2 592.97 402.2 592.97 395.19 587.13 383.75 589.91 383.75 594.25 392.72 598.67 383.75 601.32 383.75 595.46 395.07"/><polygon class="cls-1" points="610.75 395.07 610.75 402.2 608.25 402.2 608.25 395.19 602.42 383.75 605.2 383.75 609.53 392.72 613.96 383.75 616.61 383.75 610.75 395.07"/><path class="cls-1" d="M472.69,453.76a13.69,13.69,0,0,1-.87,5.38,5.66,5.66,0,0,1-2.69,2.92A11.54,11.54,0,0,1,464,463h-4.69V444.54H464a11.73,11.73,0,0,1,5.09.92,5.83,5.83,0,0,1,2.76,2.94A13.5,13.5,0,0,1,472.69,453.76Zm-2.6,0a11.7,11.7,0,0,0-.58-4.13,4,4,0,0,0-1.94-2.17,8.7,8.7,0,0,0-3.76-.67h-2.05v14h2.05a8.49,8.49,0,0,0,3.76-.67,4,4,0,0,0,1.92-2.16A11.53,11.53,0,0,0,470.09,453.73Z"/><path class="cls-1" d="M489.91,453.76a13.69,13.69,0,0,1-.87,5.38,5.66,5.66,0,0,1-2.69,2.92,11.51,11.51,0,0,1-5.13.92h-4.69V444.54h4.64a11.7,11.7,0,0,1,5.09.92A5.75,5.75,0,0,1,489,448.4,13.5,13.5,0,0,1,489.91,453.76Zm-2.6,0a11.7,11.7,0,0,0-.58-4.13,3.92,3.92,0,0,0-1.94-2.17,8.65,8.65,0,0,0-3.75-.67H479v14H481a8.47,8.47,0,0,0,3.75-.67,4,4,0,0,0,1.92-2.16A11.53,11.53,0,0,0,487.31,453.73Z"/><rect class="cls-1" x="492.85" y="454.83" width="8.3" height="2.29"/><polygon class="cls-1" points="518.97 462.98 518.97 447.69 513.87 457.96 512.33 457.96 507.28 447.69 507.28 462.98 504.94 462.98 504.94 444.54 508.27 444.54 513.16 454.57 518.09 444.54 521.32 444.54 521.32 462.98 518.97 462.98"/><polygon class="cls-1" points="540.21 462.98 540.21 447.69 535.1 457.96 533.57 457.96 528.52 447.69 528.52 462.98 526.17 462.98 526.17 444.54 529.5 444.54 534.39 454.57 539.33 444.54 542.55 444.54 542.55 462.98 540.21 462.98"/><rect class="cls-1" x="546.34" y="454.83" width="8.3" height="2.29"/><polygon class="cls-1" points="564.88 455.85 564.88 462.98 562.39 462.98 562.39 455.97 556.55 444.54 559.34 444.54 563.67 453.51 568.09 444.54 570.75 444.54 564.88 455.85"/><polygon class="cls-1" points="580.17 455.85 580.17 462.98 577.68 462.98 577.68 455.97 571.84 444.54 574.62 444.54 578.96 453.51 583.38 444.54 586.03 444.54 580.17 455.85"/><polygon class="cls-1" points="595.46 455.85 595.46 462.98 592.97 462.98 592.97 455.97 587.13 444.54 589.91 444.54 594.25 453.51 598.67 444.54 601.32 444.54 595.46 455.85"/><polygon class="cls-1" points="610.75 455.85 610.75 462.98 608.25 462.98 608.25 455.97 602.42 444.54 605.2 444.54 609.53 453.51 613.96 444.54 616.61 444.54 610.75 455.85"/><polygon class="cls-1" points="459.55 218.47 459.55 199.39 462.1 199.39 462.1 216.16 470.73 216.16 470.73 218.47 459.55 218.47"/><path class="cls-1" d="M487.68,208.93q0,5.15-1.94,7.55a7,7,0,0,1-5.82,2.4c-2.63,0-4.58-.82-5.86-2.44s-1.91-4.14-1.91-7.51.63-5.84,1.89-7.48,3.22-2.46,5.88-2.46,4.56.8,5.84,2.42S487.68,205.52,487.68,208.93Zm-2.68,0c0-2.64-.39-4.58-1.19-5.82a5,5,0,0,0-7.79,0q-1.18,1.86-1.19,5.82t1.21,5.83a4.26,4.26,0,0,0,3.88,1.85,4.31,4.31,0,0,0,3.87-1.83Q485,213,485,208.93Z"/><path class="cls-1" d="M502.57,218.48l-4.87-7.8h-3.32v7.8h-2.55V199.39h5.93q3.56,0,5.1,1.31a5,5,0,0,1,1.54,4.05,6.41,6.41,0,0,1-.94,3.71,4.73,4.73,0,0,1-3.07,1.82l5.17,8.2Zm-.8-13.53a3,3,0,0,0-1-2.6,5.18,5.18,0,0,0-3.08-.71h-3.35v6.78h3.19a7.36,7.36,0,0,0,2.51-.34,2.29,2.29,0,0,0,1.31-1.07A4.61,4.61,0,0,0,501.77,205Z"/><polygon class="cls-1" points="508.88 218.47 508.88 199.39 520.55 199.39 520.55 201.69 511.44 201.69 511.44 207.26 519.23 207.26 519.23 209.58 511.44 209.58 511.44 216.16 520.55 216.16 520.55 218.47 508.88 218.47"/><polygon class="cls-1" points="539.3 218.47 539.3 202.66 534.02 213.28 532.43 213.28 527.21 202.66 527.21 218.47 524.78 218.47 524.78 199.39 528.23 199.39 533.29 209.77 538.39 199.39 541.73 199.39 541.73 218.47 539.3 218.47"/><polygon class="cls-1" points="553.45 218.47 545.64 218.47 545.64 216.27 548.28 216.27 548.28 201.55 545.64 201.55 545.64 199.39 553.45 199.39 553.45 201.55 550.81 201.55 550.81 216.27 553.45 216.27 553.45 218.47"/><path class="cls-1" d="M569.79,205.49q0,3.44-1.62,5c-1.08,1-2.84,1.53-5.26,1.53h-3v6.48h-2.55V199.39H563q3.57,0,5.17,1.48A6,6,0,0,1,569.79,205.49Zm-2.68,0a3.82,3.82,0,0,0-1-2.92,4.91,4.91,0,0,0-3.39-.93h-2.82v8h2.46a8.14,8.14,0,0,0,2.94-.39,2.62,2.62,0,0,0,1.37-1.27A5.71,5.71,0,0,0,567.11,205.54Z"/><path class="cls-1" d="M586.91,213.25a5.1,5.1,0,0,1-1.76,4.15,7.81,7.81,0,0,1-5.13,1.48,9.09,9.09,0,0,1-4.3-.92,7,7,0,0,1-2.82-2.82l2.07-1.38a6,6,0,0,0,8.19,2,2.72,2.72,0,0,0,1.16-2.32A2.54,2.54,0,0,0,584,212a3.36,3.36,0,0,0-1-1,5.36,5.36,0,0,0-1.39-.63c-.53-.17-1.07-.32-1.64-.47-.94-.23-1.82-.47-2.62-.71a8.36,8.36,0,0,1-2.11-.94,4.31,4.31,0,0,1-1.4-1.48,4.73,4.73,0,0,1-.51-2.33,5.16,5.16,0,0,1,1.64-4,7.11,7.11,0,0,1,4.89-1.48,7.77,7.77,0,0,1,4.13,1,7.27,7.27,0,0,1,2.44,2.46l-2,1.44a5.61,5.61,0,0,0-1.82-1.92,5,5,0,0,0-2.73-.68,4.59,4.59,0,0,0-2.9.82,2.66,2.66,0,0,0-1,2.2,2.25,2.25,0,0,0,.31,1.23,2.39,2.39,0,0,0,.89.83,5.74,5.74,0,0,0,1.44.58c.57.16,1.23.34,2,.52s1.69.47,2.47.72a7.67,7.67,0,0,1,2,1,4.46,4.46,0,0,1,1.38,1.6A5.4,5.4,0,0,1,586.91,213.25Z"/><path class="cls-1" d="M605.36,210.5a14,14,0,0,1-.7,4.94,5,5,0,0,1-2.22,2.64,8.88,8.88,0,0,1-4.22.82,9,9,0,0,1-4.26-.84,4.91,4.91,0,0,1-2.26-2.66,14.17,14.17,0,0,1-.69-4.9V199.39h2.55v10.84a12.94,12.94,0,0,0,.45,3.87,3.53,3.53,0,0,0,1.44,2,5.37,5.37,0,0,0,2.73.59,5.53,5.53,0,0,0,2.74-.58,3.4,3.4,0,0,0,1.44-1.88,12.54,12.54,0,0,0,.45-3.9V199.39h2.55Z"/><polygon class="cls-1" points="624.9 218.47 624.9 202.66 619.62 213.28 618.03 213.28 612.8 202.66 612.8 218.47 610.38 218.47 610.38 199.39 613.83 199.39 618.89 209.77 623.99 199.39 627.32 199.39 627.32 218.47 624.9 218.47"/><path class="cls-1" d="M460,187.78a3,3,0,0,0,2.89,1.61,4,4,0,0,0,3.86-2.78,2.54,2.54,0,0,0-2.41-3.09h-.06c-2.31-.23-3.68-1.9-3.25-3.89a5.23,5.23,0,0,1,5.15-3.76,3.77,3.77,0,0,1,3.34,1.57l-.82.56a3,3,0,0,0-2.68-1.33,4.24,4.24,0,0,0-4.07,2.88,2.62,2.62,0,0,0,2.6,3.13c2.2.31,3.55,1.92,3.14,3.85a5.14,5.14,0,0,1-5,3.72,3.68,3.68,0,0,1-3.46-1.92Z"/><path class="cls-1" d="M475.3,189.13l.11-.49a4.36,4.36,0,0,1-3.16,1.61c-1.9,0-3-1.67-2.62-3.76l0-.1,1.38-6.51h.83l-1.37,6.51,0,.1a2.25,2.25,0,0,0,2.13,2.88,3.74,3.74,0,0,0,3.24-2.57l1.47-7h.86l-2,9.25a3.05,3.05,0,0,0-.1,1h-1Z"/><path class="cls-1" d="M484,180.62a1.33,1.33,0,0,0-.39,0,3.75,3.75,0,0,0-3.28,2.57l-1.45,6.92H478l2-9.25a2.94,2.94,0,0,0,.11-1h1l-.33,1.51a4.25,4.25,0,0,1,3.17-1.61,1.24,1.24,0,0,1,.47.06Z"/><path class="cls-1" d="M486.4,180.74l-.1.55a4.22,4.22,0,0,1,3.17-1.61c1.92,0,3,1.65,2.68,3.74l-1.37,6.65h-.86l1.41-6.65a2.24,2.24,0,0,0-2.12-2.89,3.78,3.78,0,0,0-3.3,2.58l-1.47,7h-.86l2-9.29a2.05,2.05,0,0,0,.09-.86h1Z"/><path class="cls-1" d="M498.4,189.25a4.27,4.27,0,0,1-2.7,1,2.52,2.52,0,0,1-2.64-3.09,4.22,4.22,0,0,1,4.11-3.11h2.33l.09-.45c.36-1.65-.23-3-1.52-3a8.83,8.83,0,0,0-2.46.3l0-.82a9.6,9.6,0,0,1,2.66-.34c1.6,0,2.62,1.57,2.32,3.49l0,.21s-.43,1.76-.78,3.46a15.85,15.85,0,0,0-.53,3.19h-1Zm.92-4.34H497a3.06,3.06,0,0,0-3.05,2.27,1.82,1.82,0,0,0,2,2.21,3,3,0,0,0,2.93-2.21Z"/><path class="cls-1" d="M503.62,180.8l-.13.53a4.31,4.31,0,0,1,3.16-1.59,2.7,2.7,0,0,1,2.7,2.27A4.28,4.28,0,0,1,513,179.7c1.92,0,3,1.63,2.66,3.72L514.26,190h-.86l1.41-6.61a2.23,2.23,0,0,0-2.1-2.86,3.78,3.78,0,0,0-3.28,2.55L508,190h-.86l1.39-6.57a2.21,2.21,0,0,0-2.13-2.86,3.73,3.73,0,0,0-3.25,2.55l-1.45,6.92h-.86l1.94-9.23a4.46,4.46,0,0,0,.12-1h1Z"/><path class="cls-1" d="M522.92,188.66l.19.76a9.11,9.11,0,0,1-2.62.81,3.41,3.41,0,0,1-.56,0c-2.27,0-3.68-2.17-3.27-4.89l.08-.39c.64-2.9,3-5.27,5.2-5.27s3.56,2.24,2.93,5.17l-.1.49h-7.23c-.35,2.27.76,4,2.56,4.06A8,8,0,0,0,522.92,188.66Zm1.21-4.14c.31-2.21-.69-3.94-2.37-3.94s-3.38,1.73-4,3.94Z"/><path class="cls-1" d="M469.67,250.19a7.53,7.53,0,0,1-4.81,1.92c-3.56,0-5.79-3.23-4.95-7.18s4.44-7.22,8-7.22a4.79,4.79,0,0,1,4,2l-.7.6a4.25,4.25,0,0,0-3.47-1.68c-3.1,0-6.2,2.8-7,6.34s1.17,6.37,4.26,6.37a6.37,6.37,0,0,0,3.84-1.46l.86-4.05h-3.91L466,245h4.76l-1.1,5.16Z"/><path class="cls-1" d="M473.79,241.7h.84l-2.17,10.23h-.84Zm1.19-3.62a.48.48,0,0,1,.49.55.79.79,0,0,1-.72.55.45.45,0,0,1-.47-.55A.74.74,0,0,1,475,238.08Z"/><polygon class="cls-1" points="476.57 241.7 477.5 241.7 479.23 250.74 484.8 241.7 485.78 241.7 479.44 251.93 478.52 251.93 476.57 241.7"/><path class="cls-1" d="M492,250.52l.18.76a9,9,0,0,1-2.62.81,3.25,3.25,0,0,1-.55,0c-2.27,0-3.68-2.17-3.27-4.89l.08-.39c.63-2.9,3-5.27,5.19-5.27s3.57,2.25,2.93,5.17l-.1.49h-7.22c-.35,2.27.75,4,2.56,4.06A8.13,8.13,0,0,0,492,250.52Zm1.2-4.14c.31-2.2-.69-3.94-2.37-3.94s-3.37,1.74-4,3.94Z"/><path class="cls-1" d="M497.11,242.6l-.1.55a4.21,4.21,0,0,1,3.17-1.61c1.92,0,3.05,1.65,2.68,3.74l-1.37,6.65h-.86l1.41-6.65a2.24,2.24,0,0,0-2.13-2.89,3.76,3.76,0,0,0-3.29,2.58l-1.47,7h-.86l2-9.29a2.15,2.15,0,0,0,.08-.86h1Z"/><polygon class="cls-1" points="512.4 237.79 517.09 250.21 519.73 237.79 520.59 237.79 517.6 251.93 516.74 251.93 512.06 239.45 509.42 251.93 508.58 251.93 511.56 237.79 512.4 237.79"/><path class="cls-1" d="M525.36,251.11a4.27,4.27,0,0,1-2.7,1A2.52,2.52,0,0,1,520,249a4.22,4.22,0,0,1,4.11-3.11h2.34l.08-.45c.37-1.65-.23-3-1.52-3a8.71,8.71,0,0,0-2.45.3l0-.82a9.6,9.6,0,0,1,2.66-.34c1.59,0,2.61,1.57,2.31,3.49l0,.21s-.43,1.76-.78,3.46a16.7,16.7,0,0,0-.53,3.19h-1Zm.92-4.34H524A3.08,3.08,0,0,0,520.9,249a1.82,1.82,0,0,0,2,2.21,3,3,0,0,0,2.93-2.21Z"/><path class="cls-1" d="M530.58,242.66l-.12.53a4.27,4.27,0,0,1,3.15-1.59,2.69,2.69,0,0,1,2.7,2.27,4.28,4.28,0,0,1,3.63-2.31c1.92,0,3,1.63,2.65,3.72l-1.37,6.61h-.86l1.41-6.61a2.23,2.23,0,0,0-2.1-2.86,3.8,3.8,0,0,0-3.28,2.55l-1.47,6.92h-.86l1.39-6.57a2.2,2.2,0,0,0-2.13-2.86,3.73,3.73,0,0,0-3.25,2.55l-1.45,6.92h-.86l1.94-9.23a4.46,4.46,0,0,0,.12-1h1Z"/><path class="cls-1" d="M549.89,250.52l.18.76a9,9,0,0,1-2.62.81,3.29,3.29,0,0,1-.55,0c-2.27,0-3.69-2.17-3.28-4.89l.09-.39c.63-2.9,3-5.27,5.19-5.27s3.57,2.25,2.93,5.17l-.1.49H544.5c-.34,2.27.76,4,2.56,4.06A8.13,8.13,0,0,0,549.89,250.52Zm1.2-4.14c.31-2.2-.69-3.94-2.37-3.94s-3.38,1.74-4,3.94Z"/><path class="cls-1" d="M560.14,243.38a3,3,0,0,0-2.37-.92c-1.39,0-2.62.71-2.82,1.76s.65,1.92,2.06,2.14c1.8.29,2.89,1.58,2.58,3a3.89,3.89,0,0,1-3.91,2.7,3.48,3.48,0,0,1-3-1.33l.75-.51a3,3,0,0,0,2.36,1,2.83,2.83,0,0,0,2.92-1.86c.21-1-.63-2-2-2.23-1.83-.27-2.91-1.6-2.62-3,.32-1.56,2.12-2.58,4-2.58a3.69,3.69,0,0,1,2.92,1.27Z"/><path class="cls-1" d="M461.67,299.65h5.22c2.74,0,4.25,3.18,3.43,7s-3.62,7-6.38,7.07v0h-5.26Zm.68.86-2.65,12.43h4.4l0,0c2.22-.07,4.62-2.83,5.33-6.21s-.49-6.14-2.76-6.18Z"/><path class="cls-1" d="M476.45,313a4.33,4.33,0,0,1-2.7,1,2.52,2.52,0,0,1-2.64-3.09,4.22,4.22,0,0,1,4.11-3.11h2.33l.09-.45c.36-1.66-.23-3-1.52-3.05a8.7,8.7,0,0,0-2.45.31l0-.82a10,10,0,0,1,2.66-.35c1.59,0,2.61,1.58,2.31,3.5l0,.21s-.43,1.75-.78,3.45a16.75,16.75,0,0,0-.53,3.2h-1Zm.92-4.34H475a3.08,3.08,0,0,0-3.05,2.27,1.82,1.82,0,0,0,2,2.21,3,3,0,0,0,2.93-2.21Z"/><path class="cls-1" d="M484.41,299.65l-.86,4.06h2.77l-.19.88h-2.76l-1.94,9.21h-.82s1.29-6.08,1.94-9.21H481l.18-.88h1.51l.86-4.06Z"/><path class="cls-1" d="M492.81,312.38l.18.76a8.73,8.73,0,0,1-2.62.82,4.79,4.79,0,0,1-.55,0c-2.27,0-3.68-2.17-3.27-4.89l.08-.39c.63-2.91,3-5.28,5.19-5.28s3.57,2.25,2.93,5.18l-.1.49h-7.22c-.35,2.27.75,4,2.55,4.05A8.13,8.13,0,0,0,492.81,312.38Zm1.2-4.13c.31-2.21-.69-3.95-2.37-3.95s-3.37,1.74-4,3.95Z"/><path class="cls-1" d="M507,303.44c2.62,0,4.23,2.37,3.62,5.3s-3.25,5.26-5.87,5.26-4.3-2.38-3.68-5.26S504.38,303.44,507,303.44Zm-2.07,9.7c2.13,0,4.3-2,4.81-4.4s-.8-4.44-2.93-4.44-4.35,2-4.89,4.44S502.76,313.14,505,313.14Z"/><path class="cls-1" d="M518.89,300.45a3.78,3.78,0,0,0-.71,0,3.41,3.41,0,0,0-2.77,2.85l-.12.53H518l-.18.88h-2.7l-1.92,9.13h-.8l1.92-9.13h-1.55l.18-.88h1.51a.39.39,0,0,0,.07-.14,3.69,3.69,0,0,1,.06-.39l0-.25c.5-1.86,2.11-3.44,3.71-3.44a7.87,7.87,0,0,1,1,0Z"/><path class="cls-1" d="M524.1,313.8h-1a14.61,14.61,0,0,0,.6-1.93l2.6-12.22h.86l-1,4.59a6.17,6.17,0,0,1,3.18-.8c2.73,0,4.41,2.41,3.79,5.26a6.73,6.73,0,0,1-6,5.3,5.57,5.57,0,0,1-2.91-.82Zm.39-1.93c-.13.65,1.14,1.23,2.82,1.27a5.63,5.63,0,0,0,5-4.44c.51-2.35-.9-4.4-3.11-4.4-1.57,0-3,.49-3.31,1.11Z"/><path class="cls-1" d="M536.26,303.57h.84l-2.17,10.23h-.84Zm1.18-3.63a.48.48,0,0,1,.5.55.81.81,0,0,1-.72.56.46.46,0,0,1-.47-.56A.75.75,0,0,1,537.44,299.94Z"/><path class="cls-1" d="M543.28,304.34a1.33,1.33,0,0,0-.39,0,3.76,3.76,0,0,0-3.28,2.58l-1.45,6.92h-.86l2-9.25a3.12,3.12,0,0,0,.1-1h1l-.33,1.51a4.23,4.23,0,0,1,3.17-1.62,1.24,1.24,0,0,1,.47.06Z"/><path class="cls-1" d="M548.5,299.65l-.86,4.06h2.76l-.18.88h-2.77l-1.94,9.21h-.82s1.29-6.08,1.94-9.21h-1.55l.18-.88h1.52l.86-4.06Z"/><path class="cls-1" d="M553.86,299.61,552.71,305a4.21,4.21,0,0,1,3.18-1.6c1.92,0,3.05,1.66,2.66,3.73l-1.35,6.59h-.86l1.41-6.59a2.26,2.26,0,0,0-2.15-2.89,3.82,3.82,0,0,0-3.27,2.58l-1.47,7H550l3-14.19Z"/><path class="cls-1" d="M701.38,270.82c0,3.41-.57,5.93-1.71,7.53a7,7,0,0,1-10.58,0q-1.7-2.4-1.69-7.52t1.69-7.51a7.06,7.06,0,0,1,10.59,0Q701.38,265.72,701.38,270.82Zm-2.69,0a12.44,12.44,0,0,0-1-5.83,3.8,3.8,0,0,0-6.53,0,16.82,16.82,0,0,0,0,11.7,3.8,3.8,0,0,0,6.53,0A12.65,12.65,0,0,0,698.69,270.82Z"/><path class="cls-1" d="M711.6,280.34V266.7H707v-1.78a11.09,11.09,0,0,0,2.83-.44,3.26,3.26,0,0,0,1.5-1,6.52,6.52,0,0,0,1-2.22h1.83v19.08Z"/><path class="cls-1" d="M722.45,280.34v-2.69c2.25-1.92,3.88-3.35,4.89-4.31s1.85-1.82,2.51-2.56a10.53,10.53,0,0,0,1.54-2.2,5.1,5.1,0,0,0,.54-2.34A2.94,2.94,0,0,0,731,264a3.58,3.58,0,0,0-2.5-.85,4.12,4.12,0,0,0-2.4.64,5.74,5.74,0,0,0-1.58,1.7l-2.13-1.36a6.07,6.07,0,0,1,2.55-2.48,8.27,8.27,0,0,1,3.67-.76,6.59,6.59,0,0,1,4.39,1.36,4.84,4.84,0,0,1,1.62,3.89,8,8,0,0,1-.35,2.38,7,7,0,0,1-1.13,2.11,24.45,24.45,0,0,1-2,2.31q-1.29,1.29-5.76,5.11h9.92v2.32Z"/><path class="cls-1" d="M751,274.89a5.32,5.32,0,0,1-1.78,4.39,7.73,7.73,0,0,1-5,1.46,8.14,8.14,0,0,1-3.55-.77,5.21,5.21,0,0,1-2.35-2l2.12-1.35a4.37,4.37,0,0,0,1.49,1.35,4.46,4.46,0,0,0,2.26.57,4.54,4.54,0,0,0,3.15-.92,3.73,3.73,0,0,0,1-2.88c0-2.27-1.45-3.4-4.37-3.4h-1.4V269.1h1.18a5.09,5.09,0,0,0,3.12-.85,2.82,2.82,0,0,0,1.14-2.41,2.42,2.42,0,0,0-.93-2.08,4.17,4.17,0,0,0-2.46-.67,4.43,4.43,0,0,0-4,2.11l-2.14-1.36A5.33,5.33,0,0,1,741,261.6a9,9,0,0,1,3.82-.74,8.07,8.07,0,0,1,3.18.56,4.46,4.46,0,0,1,2,1.6,4.33,4.33,0,0,1,.69,2.44,4.5,4.5,0,0,1-1,3,5.4,5.4,0,0,1-2.89,1.59,4.5,4.5,0,0,1,3,1.34A4.79,4.79,0,0,1,751,274.89Z"/><path class="cls-1" d="M766.48,276.11v4.23H764v-4.23H754.2v-2.46l9.93-12.39h2.35V273.9h2.63v2.21ZM764,264.9l-7.31,9H764Z"/><path class="cls-1" d="M785.12,274.24a6.48,6.48,0,0,1-1.73,4.75,7,7,0,0,1-5.15,1.75,7.73,7.73,0,0,1-3.73-.82,5.67,5.67,0,0,1-2.23-2l2.11-1.38a4.42,4.42,0,0,0,3.79,1.95,4.19,4.19,0,0,0,3.21-1.15,4.37,4.37,0,0,0,1.08-3.12,3.53,3.53,0,0,0-1.1-2.73,4.54,4.54,0,0,0-3.16-1,6.24,6.24,0,0,0-3.56,1h-1.24l1-10.24h10v2.3h-7.9L776,269a4.76,4.76,0,0,1,1.41-.48,7.47,7.47,0,0,1,1.61-.17,6.43,6.43,0,0,1,4.54,1.49A5.68,5.68,0,0,1,785.12,274.24Z"/><path class="cls-1" d="M795.46,280.74a5.62,5.62,0,0,1-5.06-2.43c-1.07-1.63-1.6-4-1.6-7.16s.66-5.8,2-7.6a6.45,6.45,0,0,1,5.51-2.69,7.7,7.7,0,0,1,2.81.46,6.72,6.72,0,0,1,2.18,1.37l-1.59,2a7.18,7.18,0,0,0-1.58-1.19,3.85,3.85,0,0,0-1.82-.41c-2.8,0-4.37,2.18-4.72,6.52a9.19,9.19,0,0,1,2-1,7.32,7.32,0,0,1,2.6-.45,5.88,5.88,0,0,1,4.21,1.48,5.94,5.94,0,0,1,1.58,4.56,6,6,0,0,1-6.49,6.59Zm.11-2.21a3.57,3.57,0,0,0,2.86-1.1,4.73,4.73,0,0,0,1-3.19q0-3.9-3.88-3.9a6.54,6.54,0,0,0-2.15.38,9.17,9.17,0,0,0-1.82.83,10.77,10.77,0,0,0,1,5.32A3.29,3.29,0,0,0,795.57,278.53Z"/><polygon class="cls-1" points="811.45 280.34 808.63 280.34 816.17 263.56 805.4 263.56 805.4 261.26 818.73 261.26 818.73 263.62 811.45 280.34"/><path class="cls-1" d="M835.79,275.43a4.61,4.61,0,0,1-1.81,4,8,8,0,0,1-4.85,1.32,7.82,7.82,0,0,1-5-1.36,4.76,4.76,0,0,1-1.69-3.95q0-3.69,4.13-5.23a10.2,10.2,0,0,1-2.25-1.36,4.57,4.57,0,0,1-1-1.32,3.86,3.86,0,0,1-.4-1.78,4.35,4.35,0,0,1,1.59-3.6,7.25,7.25,0,0,1,4.66-1.28,7.41,7.41,0,0,1,4.62,1.24,4.3,4.3,0,0,1,1.6,3.61,3.81,3.81,0,0,1-.42,1.79,4.9,4.9,0,0,1-1.1,1.4,9.49,9.49,0,0,1-2.19,1.3,8.08,8.08,0,0,1,3.16,2.19A4.73,4.73,0,0,1,835.79,275.43Zm-2.54,0a3.1,3.1,0,0,0-.38-1.53,4.29,4.29,0,0,0-1.17-1.26,14.45,14.45,0,0,0-2.57-1.39,12.47,12.47,0,0,0-2.52,1.3,4.23,4.23,0,0,0-1.19,1.28,3,3,0,0,0-.44,1.62,2.94,2.94,0,0,0,1,2.34,4.71,4.71,0,0,0,3.14.88,4.58,4.58,0,0,0,3.14-.9A3,3,0,0,0,833.25,275.43Zm-.45-9.67a2.61,2.61,0,0,0-.92-2.08,4,4,0,0,0-2.75-.8,4.1,4.1,0,0,0-2.82.8,2.57,2.57,0,0,0-.87,2,2.14,2.14,0,0,0,.34,1.25,4.23,4.23,0,0,0,1.1,1,17.25,17.25,0,0,0,2.25,1.22,10.72,10.72,0,0,0,2.7-1.5A2.4,2.4,0,0,0,832.8,265.76Z"/><path class="cls-1" d="M840.8,276.92a6.43,6.43,0,0,0,1.66,1.21,4.51,4.51,0,0,0,1.92.4,4,4,0,0,0,3.36-1.56,9.59,9.59,0,0,0,1.47-5,9.27,9.27,0,0,1-2,1,7.22,7.22,0,0,1-2.56.45,5.32,5.32,0,0,1-5.8-6,6.6,6.6,0,0,1,1.71-4.87,6.4,6.4,0,0,1,4.72-1.7q3.59,0,5.15,2.38c1.05,1.59,1.57,3.9,1.57,6.91a17.09,17.09,0,0,1-.84,5.74,7.42,7.42,0,0,1-2.54,3.59,6.88,6.88,0,0,1-4.22,1.26,7.19,7.19,0,0,1-5.14-1.87Zm4.46-5.67a6.54,6.54,0,0,0,2.15-.38,8.88,8.88,0,0,0,1.82-.85,15.23,15.23,0,0,0-.39-4,4.74,4.74,0,0,0-1.24-2.18,3.21,3.21,0,0,0-2.34-.82,3.69,3.69,0,0,0-2.9,1.11,4.58,4.58,0,0,0-1,3.18Q841.36,271.25,845.26,271.25Z"/><path class="cls-1" d="M857.17,276.92a6.64,6.64,0,0,0,1.67,1.21,4.51,4.51,0,0,0,1.92.4,4,4,0,0,0,3.37-1.56,9.69,9.69,0,0,0,1.46-5,9,9,0,0,1-2,1,7.22,7.22,0,0,1-2.56.45,5.32,5.32,0,0,1-5.8-6,6.56,6.56,0,0,1,1.71-4.87,6.4,6.4,0,0,1,4.72-1.7q3.58,0,5.15,2.38c1.05,1.59,1.57,3.9,1.57,6.91a17.09,17.09,0,0,1-.84,5.74,7.42,7.42,0,0,1-2.54,3.59,6.88,6.88,0,0,1-4.22,1.26,7.21,7.21,0,0,1-5.14-1.87Zm4.47-5.67a6.54,6.54,0,0,0,2.15-.38,8.88,8.88,0,0,0,1.82-.85,14.8,14.8,0,0,0-.39-4,4.66,4.66,0,0,0-1.24-2.18,3.21,3.21,0,0,0-2.34-.82,3.7,3.7,0,0,0-2.9,1.11,4.58,4.58,0,0,0-1,3.18Q857.74,271.25,861.64,271.25Z"/><polygon class="cls-1" points="702.14 341.41 702.14 326.12 697.03 336.39 695.5 336.39 690.45 326.12 690.45 341.41 688.1 341.41 688.1 322.96 691.43 322.96 696.33 333 701.26 322.96 704.48 322.96 704.48 341.41 702.14 341.41"/><path class="cls-1" d="M689,218.48l6.52-19.09h3.31l6.52,19.09h-2.69l-1.65-5h-7.78l-1.63,5Zm5-7.29h6.21l-3.1-9.29Z"/><path class="cls-1" d="M722,212.88a4.85,4.85,0,0,1-1.88,4.26,9.13,9.13,0,0,1-5.35,1.34h-6.22V199.39h5.66a9.75,9.75,0,0,1,5,1,3.68,3.68,0,0,1,1.55,3.34,4.41,4.41,0,0,1-.85,2.93,4.36,4.36,0,0,1-2.12,1.39,5.16,5.16,0,0,1,3,1.39A4.7,4.7,0,0,1,722,212.88Zm-3.81-8.58a2.28,2.28,0,0,0-.91-2.06,6.28,6.28,0,0,0-3.24-.6H711.1v5.68h2.82a5.64,5.64,0,0,0,3.28-.73A2.66,2.66,0,0,0,718.19,204.3Zm1.16,8.46a3.34,3.34,0,0,0-.46-1.86,2.64,2.64,0,0,0-1.43-1,10.6,10.6,0,0,0-3.12-.32H711.1v6.58h2.6a13.91,13.91,0,0,0,3.51-.32,2.93,2.93,0,0,0,1.61-1.07A3.4,3.4,0,0,0,719.35,212.76Z"/><path class="cls-1" d="M746.91,209q0,5.11-1.71,7.53a7,7,0,0,1-10.57,0c-1.13-1.6-1.7-4.1-1.7-7.52s.57-5.91,1.7-7.51a7,7,0,0,1,10.58,0C746.35,203.05,746.91,205.55,746.91,209Zm-2.69,0a12.44,12.44,0,0,0-1-5.83,3.8,3.8,0,0,0-6.53,0,16.82,16.82,0,0,0,0,11.7,3.8,3.8,0,0,0,6.53,0A12.65,12.65,0,0,0,744.22,209Z"/><path class="cls-1" d="M764.34,209q0,5.11-1.71,7.53a7,7,0,0,1-10.58,0c-1.13-1.6-1.69-4.1-1.69-7.52s.56-5.91,1.69-7.51a7.05,7.05,0,0,1,10.59,0Q764.34,203.85,764.34,209Zm-2.69,0a12.44,12.44,0,0,0-1-5.83,3.8,3.8,0,0,0-6.53,0,16.82,16.82,0,0,0,0,11.7,3.8,3.8,0,0,0,6.53,0A12.65,12.65,0,0,0,761.65,209Z"/><path class="cls-1" d="M774.56,218.48V204.84h-4.62v-1.78a11.09,11.09,0,0,0,2.83-.44,3.2,3.2,0,0,0,1.5-1,6.34,6.34,0,0,0,1-2.22h1.83v19.09Z"/><path class="cls-1" d="M785.41,218.48v-2.7q3.38-2.86,4.89-4.3c1-1,1.85-1.82,2.51-2.57a10.75,10.75,0,0,0,1.54-2.19,5.1,5.1,0,0,0,.54-2.34,2.93,2.93,0,0,0-.93-2.27,3.58,3.58,0,0,0-2.5-.86,4.12,4.12,0,0,0-2.4.65,5.62,5.62,0,0,0-1.58,1.7l-2.13-1.37a6.13,6.13,0,0,1,2.55-2.48,8.41,8.41,0,0,1,3.67-.76,6.59,6.59,0,0,1,4.39,1.37,4.82,4.82,0,0,1,1.62,3.89,8,8,0,0,1-.35,2.38,7.22,7.22,0,0,1-1.13,2.11,23.29,23.29,0,0,1-2.05,2.3q-1.29,1.29-5.76,5.12h9.92v2.32Z"/><path class="cls-1" d="M801.79,218.48v-2.7q3.38-2.86,4.89-4.3c1-1,1.85-1.82,2.51-2.57a10.37,10.37,0,0,0,1.54-2.19,5.1,5.1,0,0,0,.54-2.34,2.93,2.93,0,0,0-.93-2.27,3.58,3.58,0,0,0-2.5-.86,4.12,4.12,0,0,0-2.4.65,5.62,5.62,0,0,0-1.58,1.7l-2.13-1.37a6.15,6.15,0,0,1,2.56-2.48A8.33,8.33,0,0,1,808,199a6.59,6.59,0,0,1,4.39,1.37,4.82,4.82,0,0,1,1.62,3.89,8,8,0,0,1-.35,2.38,7.22,7.22,0,0,1-1.13,2.11,23.29,23.29,0,0,1-2.05,2.3q-1.29,1.29-5.76,5.12h9.92v2.32Z"/><path class="cls-1" d="M830.37,213a5.36,5.36,0,0,1-1.77,4.39,7.78,7.78,0,0,1-5,1.46,8.14,8.14,0,0,1-3.55-.77,5.27,5.27,0,0,1-2.35-2l2.12-1.36a4.35,4.35,0,0,0,1.48,1.36,5.41,5.41,0,0,0,5.42-.36,3.69,3.69,0,0,0,1-2.87c0-2.27-1.45-3.41-4.37-3.41h-1.4v-2.2h1.18a5.16,5.16,0,0,0,3.12-.85,2.82,2.82,0,0,0,1.14-2.41,2.41,2.41,0,0,0-.93-2.08,4.1,4.1,0,0,0-2.46-.67,4.45,4.45,0,0,0-4,2.1L817.84,202a5.35,5.35,0,0,1,2.47-2.25,9.13,9.13,0,0,1,3.82-.74,8.26,8.26,0,0,1,3.18.56,4.48,4.48,0,0,1,2,1.61,4.33,4.33,0,0,1,.69,2.44,4.52,4.52,0,0,1-.95,3,5.36,5.36,0,0,1-2.88,1.58,4.5,4.5,0,0,1,3,1.35A4.82,4.82,0,0,1,830.37,213Z"/><path class="cls-1" d="M846.75,213a5.34,5.34,0,0,1-1.78,4.39,7.73,7.73,0,0,1-5,1.46,8.17,8.17,0,0,1-3.55-.77,5.27,5.27,0,0,1-2.35-2l2.12-1.36a4.29,4.29,0,0,0,1.49,1.36,4.46,4.46,0,0,0,2.26.56,4.54,4.54,0,0,0,3.16-.92,3.72,3.72,0,0,0,1-2.87c0-2.27-1.45-3.41-4.37-3.41h-1.4v-2.2h1.18a5.16,5.16,0,0,0,3.12-.85,2.82,2.82,0,0,0,1.14-2.41,2.43,2.43,0,0,0-.92-2.08,4.15,4.15,0,0,0-2.47-.67,4.46,4.46,0,0,0-4,2.1L834.22,202a5.35,5.35,0,0,1,2.47-2.25,9.13,9.13,0,0,1,3.82-.74,8.26,8.26,0,0,1,3.18.56,4.48,4.48,0,0,1,2,1.61,4.33,4.33,0,0,1,.69,2.44,4.52,4.52,0,0,1-.95,3,5.4,5.4,0,0,1-2.89,1.58,4.51,4.51,0,0,1,3,1.35A4.78,4.78,0,0,1,846.75,213Z"/><path class="cls-1" d="M862.2,214.24v4.24h-2.46v-4.24h-9.82v-2.46l9.93-12.39h2.35V212h2.63v2.2ZM859.74,203l-7.3,9h7.3Z"/><path class="cls-1" d="M690,183l-1.5,7.08h-.86l3-14.14h4.07c2.21,0,3.66,1.58,3.25,3.48a4.88,4.88,0,0,1-4.74,3.58Zm1.33-6.24-1.15,5.38h3.21a3.76,3.76,0,0,0,3.68-2.72c.31-1.45-.83-2.66-2.53-2.66Z"/><path class="cls-1" d="M703.14,189.25a4.27,4.27,0,0,1-2.7,1,2.52,2.52,0,0,1-2.64-3.09,4.22,4.22,0,0,1,4.11-3.11h2.33l.08-.45c.37-1.65-.22-3-1.51-3a8.83,8.83,0,0,0-2.46.3l0-.82a9.6,9.6,0,0,1,2.66-.34c1.6,0,2.62,1.57,2.31,3.49l0,.21s-.43,1.76-.77,3.46a15.85,15.85,0,0,0-.53,3.19h-1Zm.92-4.34h-2.33a3.06,3.06,0,0,0-3.05,2.27,1.82,1.82,0,0,0,2,2.21,3,3,0,0,0,2.93-2.21Z"/><path class="cls-1" d="M713.45,181.52a3,3,0,0,0-2.37-.92c-1.39,0-2.62.71-2.82,1.75s.65,1.93,2.06,2.15c1.8.29,2.89,1.58,2.58,3a3.89,3.89,0,0,1-3.91,2.7,3.51,3.51,0,0,1-3-1.33l.76-.51a3,3,0,0,0,2.36,1,2.83,2.83,0,0,0,2.92-1.86c.21-1-.63-2-2-2.23-1.83-.27-2.91-1.6-2.62-3,.32-1.55,2.12-2.57,4-2.57a3.69,3.69,0,0,1,2.92,1.27Z"/><path class="cls-1" d="M722,181.52a3,3,0,0,0-2.37-.92,2.71,2.71,0,0,0-2.83,1.75c-.22,1,.66,1.93,2.07,2.15,1.8.29,2.89,1.58,2.58,3a3.89,3.89,0,0,1-3.91,2.7,3.51,3.51,0,0,1-3-1.33l.76-.51a3,3,0,0,0,2.35,1,2.85,2.85,0,0,0,2.93-1.86c.2-1-.64-2-2.05-2.23-1.82-.27-2.9-1.6-2.61-3,.32-1.55,2.12-2.57,4-2.57a3.71,3.71,0,0,1,2.93,1.27Z"/><path class="cls-1" d="M725.45,180.47a7,7,0,0,1,3.26-.82c2.72.07,4.42,2.38,3.8,5.26s-3.31,5.32-6,5.32a5,5,0,0,1-2.89-.79l-1,4.62h-.84l2.62-12.34a9.22,9.22,0,0,0,.2-1.86h1Zm1.19,8.92a5.65,5.65,0,0,0,5-4.48c.52-2.41-.88-4.38-3.12-4.38-1.7,0-3.2.54-3.34,1.19l-1.39,6.57C723.82,188.88,725.09,189.33,726.64,189.39Z"/><path class="cls-1" d="M739.58,179.72c2.62,0,4.23,2.37,3.62,5.29s-3.25,5.26-5.87,5.26-4.3-2.37-3.68-5.26S736.94,179.72,739.58,179.72Zm-2.07,9.7c2.13,0,4.3-2,4.81-4.41s-.79-4.43-2.92-4.43-4.36,2-4.9,4.43S735.32,189.42,737.51,189.42Z"/><path class="cls-1" d="M749.53,180.62a1.26,1.26,0,0,0-.39,0,3.75,3.75,0,0,0-3.27,2.57l-1.46,6.92h-.86l2-9.25a3.1,3.1,0,0,0,.1-1h1l-.32,1.51a4.24,4.24,0,0,1,3.17-1.61,1.27,1.27,0,0,1,.47.06Z"/><path class="cls-1" d="M754.75,175.93l-.86,4h2.76l-.18.88h-2.76l-1.94,9.21H751s1.29-6.08,1.94-9.21h-1.55l.18-.88H753l.86-4Z"/><path class="cls-1" d="M769.7,190.07H768l-2.07-6.67a45.44,45.44,0,0,1-1.12-4.46l-.06,0c-.25,1.72-.54,3.29-1,5.64l-1,5.47h-1.52l2.56-13.3h1.87l2,6.61c.47,1.57.86,3,1.13,4.4l0,0c.2-1.87.49-3.46.9-5.59l1-5.4h1.49Zm7.53-3.95h-5.14l.21-1.06h5.11Zm-4.71-4.58c0-2.21,1.47-4.46,3.87-4.46a2.38,2.38,0,0,1,2.5,2.68c0,2.27-1.46,4.39-3.79,4.39A2.41,2.41,0,0,1,772.52,181.54Zm5-1.72c0-.94-.32-1.72-1.29-1.72-1.43,0-2.23,2-2.23,3.29,0,1.09.49,1.76,1.31,1.76C776.76,183.15,777.47,181.17,777.47,179.82Z"/><path class="cls-1" d="M690,244.85l-1.5,7.08h-.86l3-14.14h4.07c2.21,0,3.66,1.58,3.25,3.48a4.88,4.88,0,0,1-4.74,3.58Zm1.33-6.24L690.18,244h3.21a3.76,3.76,0,0,0,3.68-2.72c.31-1.45-.83-2.66-2.53-2.66Z"/><path class="cls-1" d="M704.22,250.52l.18.76a9,9,0,0,1-2.61.81,3.41,3.41,0,0,1-.56,0c-2.27,0-3.68-2.17-3.27-4.89l.08-.39c.64-2.9,3-5.27,5.2-5.27s3.56,2.25,2.92,5.17l-.1.49h-7.22c-.35,2.27.76,4,2.56,4.06A8.07,8.07,0,0,0,704.22,250.52Zm1.21-4.14c.3-2.2-.7-3.94-2.37-3.94s-3.38,1.74-4,3.94Z"/><path class="cls-1" d="M712.62,242.48a1.29,1.29,0,0,0-.39,0A3.77,3.77,0,0,0,709,245l-1.45,6.92h-.86l2-9.25a3.1,3.1,0,0,0,.1-1h1l-.33,1.51a4.26,4.26,0,0,1,3.18-1.61,1.29,1.29,0,0,1,.47.06Z"/><path class="cls-1" d="M720.19,243.38a3,3,0,0,0-2.37-.92,2.68,2.68,0,0,0-2.82,1.76c-.23,1,.65,1.92,2.06,2.14,1.8.29,2.89,1.58,2.58,3a3.89,3.89,0,0,1-3.91,2.7,3.51,3.51,0,0,1-3-1.33l.76-.51a3,3,0,0,0,2.36,1,2.85,2.85,0,0,0,2.92-1.86c.2-1-.64-2-2-2.23-1.82-.27-2.9-1.6-2.61-3,.32-1.56,2.12-2.58,4-2.58a3.71,3.71,0,0,1,2.93,1.27Z"/><path class="cls-1" d="M727.42,241.58c2.62,0,4.23,2.37,3.62,5.29s-3.25,5.26-5.87,5.26-4.3-2.37-3.68-5.26S724.78,241.58,727.42,241.58Zm-2.07,9.7c2.13,0,4.3-2,4.81-4.41s-.8-4.43-2.92-4.43-4.36,2-4.9,4.43S723.16,251.28,725.35,251.28Z"/><path class="cls-1" d="M734.1,242.6l-.11.55a4.22,4.22,0,0,1,3.18-1.61c1.92,0,3.05,1.65,2.68,3.74l-1.37,6.65h-.86l1.41-6.65a2.25,2.25,0,0,0-2.13-2.89,3.76,3.76,0,0,0-3.29,2.58l-1.48,7h-.86l2-9.29a2.15,2.15,0,0,0,.08-.86h1Z"/><path class="cls-1" d="M746.09,251.11a4.27,4.27,0,0,1-2.7,1,2.52,2.52,0,0,1-2.64-3.09,4.22,4.22,0,0,1,4.11-3.11h2.34l.08-.45c.37-1.65-.23-3-1.52-3a8.71,8.71,0,0,0-2.45.3l0-.82a9.6,9.6,0,0,1,2.66-.34c1.59,0,2.62,1.57,2.31,3.49l0,.21s-.43,1.76-.78,3.46a16.7,16.7,0,0,0-.53,3.19h-1Zm.92-4.34h-2.33a3.08,3.08,0,0,0-3,2.27,1.83,1.83,0,0,0,2,2.21,3,3,0,0,0,2.93-2.21Z"/><polygon class="cls-1" points="751.97 237.79 752.83 237.79 749.84 251.93 748.98 251.93 751.97 237.79"/><path class="cls-1" d="M765.36,251.93h-1.72l-2.07-6.67a45.44,45.44,0,0,1-1.12-4.46l-.06,0c-.25,1.72-.54,3.29-1,5.64l-1,5.47h-1.52l2.56-13.3h1.87l2,6.61c.47,1.57.86,3,1.13,4.4l0,0c.2-1.87.49-3.46.9-5.59l1-5.4h1.49Zm7.53-4h-5.14l.21-1.06h5.11Zm-4.71-4.58c0-2.21,1.47-4.46,3.87-4.46a2.38,2.38,0,0,1,2.5,2.68c0,2.27-1.46,4.39-3.79,4.39A2.41,2.41,0,0,1,768.18,243.4Zm5-1.72c0-.94-.32-1.72-1.29-1.72-1.43,0-2.23,2-2.23,3.29,0,1.09.49,1.76,1.31,1.76C772.42,245,773.13,243,773.13,241.68Z"/><path class="cls-1" d="M688.64,311.5a3,3,0,0,0,2.89,1.62,4,4,0,0,0,3.87-2.78,2.55,2.55,0,0,0-2.42-3.09h-.06c-2.31-.23-3.68-1.9-3.25-3.89a5.23,5.23,0,0,1,5.15-3.77,3.78,3.78,0,0,1,3.34,1.58l-.82.55a3,3,0,0,0-2.68-1.33,4.25,4.25,0,0,0-4.07,2.89,2.63,2.63,0,0,0,2.6,3.13c2.21.3,3.56,1.92,3.15,3.85a5.16,5.16,0,0,1-5,3.72,3.68,3.68,0,0,1-3.46-1.92Z"/><path class="cls-1" d="M704.32,312.38l.19.76a8.73,8.73,0,0,1-2.62.82,4.87,4.87,0,0,1-.55,0c-2.27,0-3.69-2.17-3.28-4.89l.09-.39c.63-2.91,3-5.28,5.19-5.28s3.56,2.25,2.93,5.18l-.1.49h-7.23c-.34,2.27.76,4,2.56,4.05A8,8,0,0,0,704.32,312.38Zm1.21-4.13c.31-2.21-.69-3.95-2.37-3.95s-3.38,1.74-4,3.95Z"/><polygon class="cls-1" points="708.75 303.57 709.84 303.57 711.56 307.78 715.13 303.57 716.2 303.57 711.94 308.66 714.03 313.8 713.01 313.8 711.15 309.38 707.5 313.8 706.48 313.8 710.84 308.5 708.75 303.57"/><path class="cls-1" d="M461.67,360.44h5.22c2.74,0,4.25,3.18,3.43,7s-3.62,7-6.38,7.06v0h-5.26Zm.68.86-2.65,12.42h4.4l0,0c2.22-.06,4.62-2.82,5.33-6.2s-.49-6.14-2.76-6.18Z"/><path class="cls-1" d="M476.45,373.76a4.28,4.28,0,0,1-2.7,1,2.53,2.53,0,0,1-2.64-3.1,4.23,4.23,0,0,1,4.11-3.1h2.33l.09-.45c.36-1.66-.23-3-1.52-3.05a8.7,8.7,0,0,0-2.45.31l0-.82a9.6,9.6,0,0,1,2.66-.35c1.59,0,2.61,1.57,2.31,3.5l0,.2s-.43,1.76-.78,3.46a16.82,16.82,0,0,0-.53,3.19h-1Zm.92-4.33H475a3.08,3.08,0,0,0-3.05,2.26,1.82,1.82,0,0,0,2,2.22,3,3,0,0,0,2.93-2.22Z"/><path class="cls-1" d="M484.41,360.44l-.86,4.06h2.77l-.19.88h-2.76l-1.94,9.2h-.82s1.29-6.08,1.94-9.2H481l.18-.88h1.51l.86-4.06Z"/><path class="cls-1" d="M492.81,373.17l.18.76a10.16,10.16,0,0,1-2.62.82,4.79,4.79,0,0,1-.55,0c-2.27,0-3.68-2.18-3.27-4.89l.08-.39c.63-2.91,3-5.28,5.19-5.28s3.57,2.25,2.93,5.17l-.1.5h-7.22c-.35,2.27.75,4,2.55,4.05A8.13,8.13,0,0,0,492.81,373.17ZM494,369c.31-2.21-.69-4-2.37-4s-3.37,1.74-4,4Z"/><path class="cls-1" d="M507,364.23c2.62,0,4.23,2.37,3.62,5.3s-3.25,5.26-5.87,5.26-4.3-2.38-3.68-5.26S504.38,364.23,507,364.23Zm-2.07,9.7c2.13,0,4.3-2,4.81-4.4s-.8-4.44-2.93-4.44-4.35,2-4.89,4.44S502.76,373.93,505,373.93Z"/><path class="cls-1" d="M518.89,361.24a3.78,3.78,0,0,0-.71,0,3.41,3.41,0,0,0-2.77,2.84l-.12.54H518l-.18.88h-2.7l-1.92,9.12h-.8l1.92-9.12h-1.55l.18-.88h1.51a.39.39,0,0,0,.07-.15c0-.14.06-.39.06-.39l0-.24c.5-1.86,2.11-3.44,3.71-3.44a7.87,7.87,0,0,1,1,0Z"/><path class="cls-1" d="M525.55,364.35h.84l-2.17,10.23h-.84Zm1.19-3.62a.48.48,0,0,1,.49.55.79.79,0,0,1-.72.55.45.45,0,0,1-.47-.55A.75.75,0,0,1,526.74,360.73Z"/><path class="cls-1" d="M534.43,366a3,3,0,0,0-2.37-.92,2.7,2.7,0,0,0-2.83,1.76c-.22,1,.66,1.92,2.07,2.15,1.8.28,2.89,1.58,2.58,3a3.9,3.9,0,0,1-3.91,2.7,3.52,3.52,0,0,1-3-1.34l.76-.51a3,3,0,0,0,2.35,1,2.87,2.87,0,0,0,2.93-1.86c.2-1-.64-2-2-2.23-1.82-.27-2.9-1.6-2.62-3,.33-1.56,2.13-2.58,4-2.58a3.71,3.71,0,0,1,2.93,1.27Z"/><path class="cls-1" d="M543,366a3,3,0,0,0-2.38-.92,2.7,2.7,0,0,0-2.82,1.76c-.22,1,.66,1.92,2.07,2.15,1.8.28,2.88,1.58,2.58,3a3.9,3.9,0,0,1-3.91,2.7,3.5,3.5,0,0,1-3-1.34l.76-.51a3,3,0,0,0,2.35,1,2.87,2.87,0,0,0,2.93-1.86c.2-1-.64-2-2-2.23-1.82-.27-2.9-1.6-2.62-3,.33-1.56,2.13-2.58,4-2.58a3.72,3.72,0,0,1,2.93,1.27Z"/><path class="cls-1" d="M550.2,373.64l.1-.49a4.37,4.37,0,0,1-3.15,1.62c-1.91,0-3-1.68-2.62-3.77l0-.1,1.37-6.51h.84l-1.37,6.51,0,.1a2.25,2.25,0,0,0,2.13,2.89,3.73,3.73,0,0,0,3.23-2.58l1.47-7H553l-2,9.25a2.76,2.76,0,0,0-.1,1h-1Z"/><path class="cls-1" d="M559.8,373.17l.18.76a9.92,9.92,0,0,1-2.62.82,4.79,4.79,0,0,1-.55,0c-2.27,0-3.68-2.18-3.27-4.89l.08-.39c.63-2.91,3-5.28,5.2-5.28s3.56,2.25,2.92,5.17l-.1.5h-7.22c-.35,2.27.75,4,2.56,4.05A8.07,8.07,0,0,0,559.8,373.17ZM561,369c.3-2.21-.7-4-2.38-4s-3.37,1.74-4,4Z"/><path class="cls-1" d="M461.67,421.23h5.22c2.74,0,4.25,3.17,3.43,7s-3.62,7-6.38,7.05v0h-5.26Zm.68.86L459.7,434.5h4.4l0,0c2.22-.06,4.62-2.82,5.33-6.19s-.49-6.14-2.76-6.18Z"/><path class="cls-1" d="M476.45,434.55a4.33,4.33,0,0,1-2.7,1,2.52,2.52,0,0,1-2.64-3.09,4.22,4.22,0,0,1,4.11-3.11h2.33l.09-.45c.36-1.66-.23-3-1.52-3.05a8.7,8.7,0,0,0-2.45.31l0-.82a9.6,9.6,0,0,1,2.66-.35c1.59,0,2.61,1.58,2.31,3.5l0,.2s-.43,1.76-.78,3.46a16.82,16.82,0,0,0-.53,3.19h-1Zm.92-4.34H475a3.08,3.08,0,0,0-3.05,2.27,1.82,1.82,0,0,0,2,2.21,3,3,0,0,0,2.93-2.21Z"/><path class="cls-1" d="M484.41,421.23l-.86,4h2.77l-.19.88h-2.76l-1.94,9.2h-.82s1.29-6.07,1.94-9.2H481l.18-.88h1.51l.86-4Z"/><path class="cls-1" d="M492.81,434l.18.76a9.79,9.79,0,0,1-2.62.82,4.79,4.79,0,0,1-.55,0c-2.27,0-3.68-2.17-3.27-4.89l.08-.39c.63-2.9,3-5.28,5.19-5.28s3.57,2.25,2.93,5.18l-.1.49h-7.22c-.35,2.27.75,4,2.55,4A7.92,7.92,0,0,0,492.81,434Zm1.2-4.13c.31-2.21-.69-3.95-2.37-3.95s-3.37,1.74-4,3.95Z"/><path class="cls-1" d="M507,425c2.62,0,4.23,2.38,3.62,5.3s-3.25,5.26-5.87,5.26-4.3-2.37-3.68-5.26S504.38,425,507,425Zm-2.07,9.7c2.13,0,4.3-2,4.81-4.4s-.8-4.44-2.93-4.44-4.35,2-4.89,4.44S502.76,434.71,505,434.71Z"/><path class="cls-1" d="M518.89,422a3.78,3.78,0,0,0-.71,0,3.41,3.41,0,0,0-2.77,2.85l-.12.53H518l-.18.88h-2.7l-1.92,9.12h-.8l1.92-9.12h-1.55l.18-.88h1.51a.39.39,0,0,0,.07-.15,3.82,3.82,0,0,1,.06-.38l0-.25c.5-1.86,2.11-3.44,3.71-3.44a6.31,6.31,0,0,1,1,.05Z"/><path class="cls-1" d="M529.89,434l.18.76a9.79,9.79,0,0,1-2.62.82,4.79,4.79,0,0,1-.55,0c-2.27,0-3.68-2.17-3.27-4.89l.08-.39c.63-2.9,3-5.28,5.19-5.28s3.57,2.25,2.93,5.18l-.1.49h-7.22c-.35,2.27.75,4,2.56,4A7.92,7.92,0,0,0,529.89,434Zm1.2-4.13c.31-2.21-.69-3.95-2.37-3.95s-3.37,1.74-4,3.95Z"/><polygon class="cls-1" points="534.31 425.13 535.4 425.13 537.12 429.35 540.7 425.13 541.76 425.13 537.51 430.23 539.6 435.37 538.57 435.37 536.71 430.95 533.07 435.37 532.04 435.37 536.4 430.07 534.31 425.13"/><path class="cls-1" d="M544.16,425.77a7,7,0,0,1,3.26-.82c2.72.06,4.42,2.38,3.8,5.26a6.67,6.67,0,0,1-6.06,5.32,4.93,4.93,0,0,1-2.88-.8l-1,4.63h-.84L543.08,427a10,10,0,0,0,.2-1.87h1Zm1.19,8.92a5.65,5.65,0,0,0,5-4.48c.52-2.42-.88-4.38-3.13-4.38-1.7,0-3.19.53-3.33,1.19l-1.4,6.57C542.52,434.18,543.79,434.63,545.35,434.69Z"/><path class="cls-1" d="M554.34,425.13h.84L553,435.36h-.84Zm1.18-3.61a.48.48,0,0,1,.5.55.8.8,0,0,1-.72.54.45.45,0,0,1-.47-.54A.74.74,0,0,1,555.52,421.52Z"/><path class="cls-1" d="M561.36,425.91a1.29,1.29,0,0,0-.39,0,3.77,3.77,0,0,0-3.28,2.58l-1.45,6.91h-.86l2-9.25a3.09,3.09,0,0,0,.1-1h1l-.33,1.52a4.27,4.27,0,0,1,3.18-1.62,1.29,1.29,0,0,1,.47.06Z"/><path class="cls-1" d="M560.69,438.48c0,.06.1.06.14.12h0l.47,0a3.64,3.64,0,0,0,2.85-1.88l1.24-2-1.88-9.7h.92l1.62,8.64,5.24-8.64h.92l-7.39,12-.08.19a4.68,4.68,0,0,1-3.66,2.23,2.78,2.78,0,0,1-.72-.1Z"/><polygon class="cls-1" points="689.91 367.48 688.42 374.58 687.56 374.58 690.55 360.44 691.4 360.44 690.1 366.62 697.89 366.62 699.2 360.44 700.06 360.44 697.07 374.58 696.22 374.58 697.71 367.48 689.91 367.48"/><path class="cls-1" d="M705.43,364.23c2.62,0,4.23,2.37,3.62,5.3s-3.25,5.26-5.87,5.26-4.3-2.38-3.68-5.26S702.79,364.23,705.43,364.23Zm-2.07,9.7c2.13,0,4.3-2,4.81-4.4s-.8-4.44-2.93-4.44-4.35,2-4.89,4.44S701.17,373.93,703.36,373.93Z"/><polygon class="cls-1" points="712.8 360.44 713.66 360.44 710.67 374.58 709.81 374.58 712.8 360.44"/><path class="cls-1" d="M720.91,373.93a7.21,7.21,0,0,1-3.2.8c-2.68-.06-4.39-2.38-3.78-5.3a6.63,6.63,0,0,1,6-5.2h0a4.6,4.6,0,0,1,2.87.79l1-4.58h.86l-2.58,12.17a8.56,8.56,0,0,0-.26,1.91h-1Zm-1.15-8.84a5.58,5.58,0,0,0-5,4.34c-.51,2.39.88,4.38,3.13,4.46h0c1.68-.08,3.11-.64,3.25-1.28l1.37-6.44C722.52,365.58,721.38,365.09,719.76,365.09Z"/><path class="cls-1" d="M730.57,373.17l.18.76a10,10,0,0,1-2.61.82,5.06,5.06,0,0,1-.56,0c-2.27,0-3.68-2.18-3.27-4.89l.08-.39c.64-2.91,3-5.28,5.2-5.28s3.56,2.25,2.92,5.17l-.1.5h-7.22c-.35,2.27.76,4,2.56,4.05A8.07,8.07,0,0,0,730.57,373.17Zm1.21-4.13c.3-2.21-.7-4-2.38-4s-3.37,1.74-4,4Z"/><path class="cls-1" d="M739,365.13a1.29,1.29,0,0,0-.39,0,3.77,3.77,0,0,0-3.28,2.57l-1.45,6.92H733l2-9.25a3.1,3.1,0,0,0,.1-1h1l-.33,1.51a4.26,4.26,0,0,1,3.18-1.61,1.29,1.29,0,0,1,.47.06Z"/><polygon class="cls-1" points="741.96 360.54 742.96 360.44 742.84 361.73 740.98 363.33 740.89 363.2 741.84 361.83 741.96 360.54"/><path class="cls-1" d="M749.8,366a3,3,0,0,0-2.38-.92c-1.39,0-2.62.71-2.82,1.76s.65,1.92,2.07,2.15c1.8.28,2.88,1.58,2.58,3a3.9,3.9,0,0,1-3.91,2.7,3.5,3.5,0,0,1-3-1.34l.75-.51a3,3,0,0,0,2.36,1,2.87,2.87,0,0,0,2.93-1.86c.2-1-.64-2-2-2.23-1.82-.27-2.91-1.6-2.62-3,.33-1.56,2.13-2.58,4-2.58a3.72,3.72,0,0,1,2.93,1.27Z"/><path class="cls-1" d="M763.6,366a3,3,0,0,0-2.38-.92c-1.39,0-2.62.71-2.82,1.76s.65,1.92,2.07,2.15c1.8.28,2.88,1.58,2.58,3a3.9,3.9,0,0,1-3.91,2.7,3.5,3.5,0,0,1-3-1.34l.75-.51a3,3,0,0,0,2.36,1,2.87,2.87,0,0,0,2.93-1.86c.2-1-.64-2-2.05-2.23-1.82-.27-2.91-1.6-2.62-3,.33-1.56,2.13-2.58,4-2.58a3.72,3.72,0,0,1,2.93,1.27Z"/><path class="cls-1" d="M766.88,364.35h.83l-2.16,10.23h-.84Zm1.18-3.62a.48.48,0,0,1,.49.55.79.79,0,0,1-.71.55.45.45,0,0,1-.47-.55A.74.74,0,0,1,768.06,360.73Z"/><path class="cls-1" d="M772.3,372.17c2.29,0,3.81,1.43,3.42,3.23s-2.52,3.27-4.81,3.27-3.77-1.49-3.4-3.27a4.29,4.29,0,0,1,2.72-2.83,1.9,1.9,0,0,1,0-1,1.88,1.88,0,0,1,.68-1.1,2.75,2.75,0,0,1-.95-2.74,5,5,0,0,1,4.84-3.54,5.44,5.44,0,0,1,1.49.22h3.54l-1,.86H777.5a2.61,2.61,0,0,1,.59,2.46,4.93,4.93,0,0,1-4.81,3.5c-.67,0-1.15-.25-1.64-.25a.71.71,0,0,0-.77.55c-.13.58.24.66.57.66l.37,0A2.11,2.11,0,0,1,772.3,372.17Zm-1.23,5.68c1.86,0,3.56-1.12,3.85-2.45S774,373,772.13,373s-3.52,1.14-3.8,2.45S769.31,377.85,771.07,377.85Zm2.37-7.4a3.89,3.89,0,0,0,3.85-2.68c.33-1.53-.84-2.73-2.68-2.73a3.92,3.92,0,0,0-3.83,2.73C770.48,369.24,771.66,370.45,773.44,370.45Z"/><path class="cls-1" d="M781.9,365.25l-.1.55a4.21,4.21,0,0,1,3.17-1.61c1.92,0,3,1.65,2.68,3.74l-1.37,6.65h-.86l1.41-6.65A2.25,2.25,0,0,0,784.7,365a3.76,3.76,0,0,0-3.29,2.58l-1.47,7h-.86l2-9.29a2.14,2.14,0,0,0,.08-.86h1Z"/><path class="cls-1" d="M793.9,373.76a4.28,4.28,0,0,1-2.7,1,2.53,2.53,0,0,1-2.64-3.1,4.23,4.23,0,0,1,4.11-3.1H795l.08-.45c.37-1.66-.22-3-1.51-3.05a8.82,8.82,0,0,0-2.46.31l0-.82a9.6,9.6,0,0,1,2.66-.35c1.6,0,2.62,1.57,2.31,3.5l0,.2s-.43,1.76-.77,3.46a17.28,17.28,0,0,0-.54,3.19h-1Zm.92-4.33h-2.34a3.06,3.06,0,0,0-3,2.26,1.82,1.82,0,0,0,2,2.22,3,3,0,0,0,2.93-2.22Z"/><path class="cls-1" d="M801.86,360.44,801,364.5h2.76l-.18.88h-2.76l-2,9.2h-.82l2-9.2h-1.56l.19-.88h1.51l.86-4.06Z"/><path class="cls-1" d="M809.86,373.64l.11-.49a4.37,4.37,0,0,1-3.16,1.62c-1.9,0-3-1.68-2.61-3.77l0-.1,1.37-6.51h.83L805,370.9l0,.1a2.25,2.25,0,0,0,2.12,2.89,3.75,3.75,0,0,0,3.24-2.58l1.47-7h.86l-2,9.25a3.05,3.05,0,0,0-.1,1h-1Z"/><path class="cls-1" d="M818.53,365.13a1.33,1.33,0,0,0-.39,0,3.77,3.77,0,0,0-3.28,2.57l-1.45,6.92h-.86l2-9.25a3.1,3.1,0,0,0,.1-1h1l-.33,1.51a4.25,4.25,0,0,1,3.17-1.61,1.24,1.24,0,0,1,.47.06Z"/><path class="cls-1" d="M825.18,373.17l.18.76a9.92,9.92,0,0,1-2.62.82,4.79,4.79,0,0,1-.55,0c-2.27,0-3.68-2.18-3.27-4.89l.08-.39c.63-2.91,3-5.28,5.2-5.28s3.56,2.25,2.92,5.17l-.1.5H819.8c-.35,2.27.75,4,2.56,4.05A8.07,8.07,0,0,0,825.18,373.17Zm1.21-4.13c.3-2.21-.7-4-2.38-4s-3.37,1.74-4,4Z"/><path class="cls-2" d="M41.9,34.93h976.71a0,0,0,0,1,0,0V632.28a34.42,34.42,0,0,1-34.42,34.42H76.32A34.42,34.42,0,0,1,41.9,632.28V34.93A0,0,0,0,1,41.9,34.93Z"/><rect class="cls-3" x="138.06" y="174.32" width="239.64" height="265.65"/><path class="cls-1" d="M377.7,440l-14.08-57.46a27.77,27.77,0,0,0-21.53-20.61C303.15,354.07,259.4,357,259.4,357s-46.59-3.32-86.77,6a27.57,27.57,0,0,0-20.41,20.25L138.06,440Z"/><ellipse class="cls-1" cx="257.56" cy="281.39" rx="66.2" ry="52.5" transform="matrix(0, -1, 1, 0, -24.46, 538.25)"/></svg>