<svg id="id_card" data-name="id card" xmlns="http://www.w3.org/2000/svg" viewBox="0 0 1061.15 701.64"><defs><style>.cls-1{fill:#fff;}.cls-2{fill:none;stroke:#fff;stroke-miterlimit:10;stroke-width:3px;}.cls-3{fill:#828181;}</style></defs><rect class="cls-1" x="427.64" y="194.9" width="280.83" height="39.59"/><rect class="cls-1" x="427.64" y="248.53" width="376.28" height="39.59"/><rect class="cls-1" x="427.64" y="302.17" width="330.8" height="39.59"/><rect class="cls-1" x="424.8" y="482.98" width="376.28" height="39.59"/><rect class="cls-1" x="424.8" y="535.97" width="376.28" height="39.59"/><path class="cls-2" d="M981,42.86H80.14A47.12,47.12,0,0,0,33,90V611.66a47.12,47.12,0,0,0,47.12,47.11H981a47.11,47.11,0,0,0,47.11-47.11V90A47.12,47.12,0,0,0,981,42.86Z"/><path class="cls-2" d="M981,659.18H80.15a47.58,47.58,0,0,1-47.53-47.53V90A47.58,47.58,0,0,1,80.14,42.46H981A47.58,47.58,0,0,1,1028.53,90V611.65A47.58,47.58,0,0,1,981,659.18ZM80.14,43.29A46.75,46.75,0,0,0,33.44,90V611.66a46.75,46.75,0,0,0,46.7,46.7H981a46.75,46.75,0,0,0,46.7-46.7V90A46.75,46.75,0,0,0,981,43.28Z"/><rect class="cls-1" x="118.2" y="190.1" width="227.24" height="251.91"/><path class="cls-3" d="M345.44,442l-13.35-54.49A26.33,26.33,0,0,0,311.68,368c-36.93-7.43-78.42-4.63-78.42-4.63S189.07,360.2,151,369a26.14,26.14,0,0,0-19.36,19.2L118.2,442Z"/><ellipse class="cls-3" cx="231.52" cy="291.63" rx="62.78" ry="49.78" transform="translate(-60.68 522.42) rotate(-89.86)"/><path class="cls-1" d="M408.34,136.06h9.94V104.72h-9.94v-4.33h25v4.33H423.4v31.34h9.94v4.33h-25Z"/><path class="cls-1" d="M444.43,100.39h9.88c12,0,18.53,7.14,18.53,19.82s-6.52,20.18-18.29,20.18H444.43Zm9.51,35.79c9.09,0,13.6-5.85,13.6-16S463,104.6,453.94,104.6h-4.39v31.58Z"/><path class="cls-1" d="M516.25,120.39c0-12.86,7.5-20.73,17.93-20.73a15,15,0,0,1,11,4.88l-2.93,3.23a10.72,10.72,0,0,0-8-3.6c-7.63,0-12.63,6.16-12.63,16.1s5,16.34,12.63,16.34c3.65,0,6.46-1.58,9-4.39l2.93,3.11a15.46,15.46,0,0,1-12.38,5.79C523.81,141.12,516.25,133.44,516.25,120.39Z"/><path class="cls-1" d="M564.23,100.39h5.85l13.48,40h-5.49l-6.89-22.31c-1.4-4.46-2.74-8.85-4-13.48H567c-1.28,4.63-2.57,9-4,13.48l-7,22.31h-5.24Zm-6.34,23.72h18.35v4.15H557.89Z"/><path class="cls-1" d="M591.48,100.39H604c8.11,0,14,2.93,14,11.28,0,8-5.92,11.83-14,11.83h-7.31v16.89h-5.19Zm11.77,19c6.22,0,9.63-2.57,9.63-7.69s-3.41-7.13-9.63-7.13h-6.58v14.82Zm3.72.06,12.19,21h-5.79L603,122.1Z"/><path class="cls-1" d="M627.33,100.39h9.88c12,0,18.53,7.14,18.53,19.82s-6.52,20.18-18.29,20.18H627.33Zm9.51,35.79c9.09,0,13.6-5.85,13.6-16s-4.51-15.61-13.6-15.61h-4.39v31.58Z"/></svg>