<svg id="id_card" data-name="id card" xmlns="http://www.w3.org/2000/svg" viewBox="0 0 1061.15 701.64"><defs><style>.cls-1{fill:#fff;}.cls-2{fill:none;stroke:#fff;stroke-miterlimit:10;stroke-width:3px;}.cls-3{fill:#828181;}</style></defs><rect class="cls-1" x="427.64" y="193.9" width="280.83" height="39.59"/><rect class="cls-1" x="427.64" y="247.53" width="376.28" height="39.59"/><rect class="cls-1" x="427.64" y="301.17" width="330.8" height="39.59"/><path class="cls-2" d="M981,42.86H80.14A47.12,47.12,0,0,0,33,90V611.66a47.12,47.12,0,0,0,47.12,47.11H981a47.11,47.11,0,0,0,47.11-47.11V90A47.12,47.12,0,0,0,981,42.86Z"/><path class="cls-2" d="M981,659.18H80.15a47.58,47.58,0,0,1-47.53-47.53V90A47.58,47.58,0,0,1,80.14,42.46H981A47.58,47.58,0,0,1,1028.53,90V611.65A47.58,47.58,0,0,1,981,659.18ZM80.14,43.29A46.75,46.75,0,0,0,33.44,90V611.66a46.75,46.75,0,0,0,46.7,46.7H981a46.75,46.75,0,0,0,46.7-46.7V90A46.75,46.75,0,0,0,981,43.28Z"/><rect class="cls-1" x="118.2" y="189.1" width="227.24" height="251.91"/><path class="cls-3" d="M345.44,441l-13.35-54.49A26.33,26.33,0,0,0,311.68,367c-36.93-7.43-78.42-4.63-78.42-4.63S189.07,359.2,151,368a26.14,26.14,0,0,0-19.36,19.2L118.2,441Z"/><ellipse class="cls-3" cx="231.52" cy="290.63" rx="62.78" ry="49.78" transform="matrix(0, -1, 1, 0, -59.68, 521.42)"/><path class="cls-1" d="M261.53,95.39h9.88c12,0,18.53,7.14,18.53,19.82s-6.52,20.18-18.29,20.18H261.53ZM271,131.18c9.09,0,13.6-5.85,13.6-16S280.13,99.6,271,99.6h-4.39v31.58Z"/><path class="cls-1" d="M298.84,95.39h12.5c8.11,0,14,2.93,14,11.28,0,8-5.92,11.83-14,11.83H304v16.89h-5.19Zm11.77,19c6.22,0,9.63-2.57,9.63-7.69s-3.41-7.13-9.63-7.13H304v14.82Zm3.72.06,12.19,21h-5.79L310.31,117.1Z"/><path class="cls-1" d="M335.18,131.06h9.94V99.72h-9.94V95.39h25v4.33h-9.94v31.34h9.94v4.33h-25Z"/><path class="cls-1" d="M368.53,95.39H374l6.4,21.59c1.4,4.69,2.38,8.53,3.84,13.17h.24c1.47-4.64,2.5-8.48,3.84-13.17l6.41-21.59H400l-12.68,40h-6Z"/><path class="cls-1" d="M408.34,131.06h9.94V99.72h-9.94V95.39h25v4.33H423.4v31.34h9.94v4.33h-25Z"/><path class="cls-1" d="M444.13,95.39h5.61l12.8,25.12,3.84,8.3h.12c-.18-4-.67-8.48-.67-12.69V95.39h4.88v40H465.1l-12.8-25.12L448.46,102h-.13c.19,4.08.67,8.35.67,12.5v20.91h-4.87Z"/><path class="cls-1" d="M478.94,115.39c0-12.92,7.38-20.73,17.74-20.73a14.71,14.71,0,0,1,11,4.88l-2.93,3.23a10.42,10.42,0,0,0-8.11-3.6c-7.5,0-12.38,6.16-12.38,16.1s4.46,16.34,12.26,16.34c2.8,0,5.43-.85,6.89-2.32V118.87h-7.93v-4.21h12.69v16.83a16.82,16.82,0,0,1-12,4.63C486.19,136.12,478.94,128.44,478.94,115.39Z"/><path class="cls-1" d="M557,95.39h5.06v35.67h19.75v4.33H557Z"/><path class="cls-1" d="M591.24,131.06h9.94V99.72h-9.94V95.39h25v4.33H606.3v31.34h9.94v4.33h-25Z"/><path class="cls-1" d="M626,115.39c0-12.86,7.5-20.73,17.93-20.73a15,15,0,0,1,11,4.88L652,102.77a10.76,10.76,0,0,0-8.05-3.6c-7.63,0-12.62,6.16-12.62,16.1s5,16.34,12.62,16.34c3.65,0,6.46-1.58,9-4.39l2.93,3.11a15.46,15.46,0,0,1-12.38,5.79C633.55,136.12,626,128.44,626,115.39Z"/><path class="cls-1" d="M665.56,95.39h24.75v4.33H670.68v12.5h16.59v4.33H670.68v14.51h20.24v4.33H665.56Z"/><path class="cls-1" d="M700.19,95.39h5.61l12.8,25.12,3.84,8.3h.12c-.18-4-.67-8.48-.67-12.69V95.39h4.88v40h-5.61l-12.8-25.12L704.52,102h-.13c.19,4.08.67,8.35.67,12.5v20.91h-4.87Z"/><path class="cls-1" d="M735.85,130.21l3-3.54a16.83,16.83,0,0,0,11.71,4.94c5.49,0,8.66-2.62,8.66-6.28,0-4.27-3.11-5.49-7.14-7.19l-5.79-2.56c-4-1.59-8.6-4.39-8.6-10.31,0-6.1,5.49-10.61,13.11-10.61a17.45,17.45,0,0,1,12.32,4.94l-2.69,3.29a14.08,14.08,0,0,0-9.81-3.72c-4.64,0-7.75,2.2-7.75,5.8,0,3.84,3.72,5.24,7.14,6.58l5.61,2.5c4.94,2,8.84,4.76,8.84,10.67,0,6.34-5.37,11.4-14.15,11.4A20.32,20.32,0,0,1,735.85,130.21Z"/><path class="cls-1" d="M775.3,95.39h24.75v4.33H780.42v12.5H797v4.33H780.42v14.51h20.24v4.33H775.3Z"/></svg>